<svg xmlns="http://www.w3.org/2000/svg" width="27.065" height="32.12" viewBox="0 0 27.065 32.12"><defs><style>.a{fill:#fff;}</style></defs><path class="a" d="M6.207,12.706H3.262A3.266,3.266,0,0,1,0,9.444V3.261A3.265,3.265,0,0,1,3.262,0H6.207V12.705ZM3.262,1.5A1.763,1.763,0,0,0,1.5,3.261V9.444a1.764,1.764,0,0,0,1.761,1.762H4.707V1.5Z" transform="translate(0 5.198)"/><path class="a" d="M8.57,12.729H3.533L0,0H4.585l.454,0L8.569,12.727ZM1.973,1.5l2.7,9.729H6.6L3.9,1.5H1.973Z" transform="translate(4.24 19.391)"/><path class="a" d="M16.17,23.1l0,0a16.041,16.041,0,0,0-4.756-3.205,24.208,24.208,0,0,0-9.088-1.965.713.713,0,0,0-.176-.023H0V5.2H1.131A25.247,25.247,0,0,0,11.05,3.373,16.155,16.155,0,0,0,16.17,0V23.1ZM14.67,3.128h0A20.4,20.4,0,0,1,9.434,5.544,28.212,28.212,0,0,1,1.5,6.7V16.4h.649a2.216,2.216,0,0,1,.344.027,27.23,27.23,0,0,1,7.292,1.238,20.328,20.328,0,0,1,4.885,2.306V3.128Z" transform="translate(7.695)"/><path class="a" d="M0,0V7.245A4.7,4.7,0,0,0,1.712,3.621,4.7,4.7,0,0,0,0,0" transform="translate(25.353 7.928)"/></svg>