<svg
    xmlns="http://www.w3.org/2000/svg" width="27.065" height="32.12" viewBox="0 0 27.065 32.12">
    <defs>
        <style>.a{fill:#fff;}</style>
    </defs>
    <path class="a" d="M190.935,339.286V333.1a3.265,3.265,0,0,1,3.261-3.261h2.946v12.7H194.2A3.265,3.265,0,0,1,190.935,339.286Z" transform="translate(-190.935 -324.644)"/>
    <path class="a" d="M198.707,356.764l-3.533-12.729h4.586c.152,0,.3,0,.452,0l3.533,12.726Z" transform="translate(-190.935 -324.644)"/>
    <path class="a" d="M214.8,347.741c-1.938-1.936-6.134-4.892-13.845-5.173a.739.739,0,0,0-.177-.021H198.63V329.841h1.131c8.457,0,12.98-3.135,15.039-5.2v23.1Z" transform="translate(-190.935 -324.644)"/>
    <path class="a" d="M216.287,339.817v-7.245a4.687,4.687,0,0,1,0,7.245Z" transform="translate(-190.935 -324.644)"/>
</svg>