<?xml version="1.0" encoding="utf-8"?>
<!-- Generator: Adobe Illustrator 24.1.0, SVG Export Plug-In . SVG Version: 6.00 Build 0)  -->
<svg version="1.1" id="Layer_2_1_" xmlns="http://www.w3.org/2000/svg" xmlns:xlink="http://www.w3.org/1999/xlink" x="0px" y="0px"
	 viewBox="0 0 32 32" style="enable-background:new 0 0 32 32;" xml:space="preserve">
<style type="text/css">
	.st0{fill:#FFFFFF;}
</style>
<g>
	<path class="st0" d="M13.3,5.5v10.2H5.5V5.5H13.3 M14.8,4H5.5C4.7,4,4,4.7,4,5.5v11.7h10.8V4L14.8,4z"/>
	<path class="st0" d="M13.3,21.1v5.4H5.5v-5.4H13.3 M14.8,19.6H4v6.9C4,27.3,4.7,28,5.5,28h9.3V19.6L14.8,19.6z"/>
	<path class="st0" d="M26.5,5.5v5.4h-7.8V5.5H26.5 M26.5,4h-9.3v8.4H28V5.5C28,4.7,27.3,4,26.5,4L26.5,4z"/>
	<path class="st0" d="M26.5,16.3v10.2h-7.8V16.3H26.5 M28,14.8H17.2V28h9.3c0.8,0,1.5-0.7,1.5-1.5L28,14.8L28,14.8z"/>
</g>
</svg>
