<?xml version="1.0" encoding="utf-8"?>
<!-- Generator: Adobe Illustrator 24.1.0, SVG Export Plug-In . SVG Version: 6.00 Build 0)  -->
<svg version="1.1" id="Layer_2" xmlns="http://www.w3.org/2000/svg" xmlns:xlink="http://www.w3.org/1999/xlink" x="0px" y="0px"
	 viewBox="0 0 32 32" style="enable-background:new 0 0 32 32;" xml:space="preserve">
<style type="text/css">
	.st0{fill:#FFFFFF;}
</style>
<g>
	<path class="st0" d="M16.9,30.1H15c-0.4,0-0.8-0.3-0.9-0.8l-0.5-3c-0.3-0.1-0.6-0.1-0.9-0.2l-1.9,2.4c-0.3,0.3-0.8,0.4-1.1,0.2
		l-1.6-0.9c-0.4-0.2-0.5-0.7-0.4-1.1l1.1-2.8c-0.2-0.2-0.4-0.4-0.6-0.7l-2.8,1.1c-0.4,0.2-0.9,0-1.1-0.4l-0.9-1.6
		c-0.2-0.4-0.1-0.9,0.2-1.1L6,19.3c-0.1-0.3-0.2-0.6-0.2-0.9l-3-0.5C2.3,17.9,2,17.5,2,17.1v-1.9c0-0.4,0.3-0.8,0.8-0.9l3-0.5
		C5.8,13.6,5.9,13.3,6,13l-2.4-1.9c-0.3-0.3-0.4-0.8-0.2-1.1l0.9-1.6C4.5,7.9,5,7.8,5.4,7.9l2.8,1.1c0.2-0.2,0.4-0.4,0.6-0.7
		L7.8,5.6c-0.2-0.4,0-0.9,0.4-1.1l1.6-0.9c0.4-0.2,0.9-0.1,1.1,0.2l1.9,2.4C13.1,6,13.4,6,13.7,5.9l0.5-3c0.1-0.4,0.4-0.8,0.9-0.8
		h1.9c0.4,0,0.8,0.3,0.9,0.8l0.5,3C18.5,6,18.8,6,19.1,6.1L21,3.8c0.3-0.3,0.8-0.4,1.1-0.2l1.6,0.9c0.4,0.2,0.5,0.7,0.4,1.1
		l-1.1,2.8c0.2,0.2,0.4,0.4,0.7,0.7l2.8-1.1c0.4-0.2,0.9,0,1.1,0.4l0.9,1.6c0.2,0.4,0.1,0.9-0.2,1.1L26,13c0.1,0.3,0.2,0.6,0.2,0.9
		l3,0.5c0.4,0.1,0.8,0.4,0.8,0.9v1.9c0,0.4-0.3,0.8-0.8,0.9l-3,0.5c-0.1,0.3-0.1,0.6-0.2,0.9l2.4,1.9c0.3,0.3,0.4,0.8,0.2,1.1
		L27.6,24c-0.2,0.4-0.7,0.5-1.1,0.4l-2.8-1.1c-0.2,0.2-0.4,0.4-0.7,0.7l1.1,2.8c0.2,0.4,0,0.9-0.4,1.1l-1.6,0.9
		c-0.4,0.2-0.9,0.1-1.1-0.2l-1.9-2.4c-0.3,0.1-0.6,0.2-0.9,0.2l-0.5,3C17.7,29.8,17.4,30.1,16.9,30.1z M15.4,28.8h1.1l0.5-3.6
		l0.5-0.1c0.5-0.1,1.1-0.2,1.6-0.4l0.5-0.2l2.2,2.8l1-0.6l-1.3-3.4l0.4-0.3c0.4-0.3,0.8-0.7,1.2-1.2l0.3-0.4l3.4,1.3l0.6-1l-2.8-2.2
		l0.2-0.5c0.2-0.5,0.3-1.1,0.4-1.6l0.1-0.5l3.6-0.5v-1.1L25.1,15L25,14.6c-0.1-0.5-0.2-1.1-0.4-1.6l-0.2-0.5l2.8-2.2l-0.6-1
		l-3.4,1.3L23,10.3c-0.4-0.4-0.7-0.8-1.2-1.2l-0.4-0.3l1.3-3.4l-1-0.6l-2.2,2.8l-0.5-0.2c-0.5-0.2-1.1-0.3-1.6-0.4L17.1,7l-0.5-3.6
		h-1.1L14.9,7l-0.5,0.1c-0.5,0.1-1.1,0.2-1.6,0.4l-0.5,0.2l-2.2-2.8l-1,0.6l1.3,3.4l-0.4,0.3c-0.4,0.3-0.8,0.7-1.2,1.2l-0.3,0.4
		L5.3,9.3l-0.6,1l2.8,2.2L7.4,13C7.2,13.5,7,14,6.9,14.6L6.9,15l-3.6,0.5v1.1l3.6,0.5l0.1,0.5c0.1,0.5,0.2,1.1,0.4,1.6l0.2,0.5
		L4.7,22l0.6,1l3.4-1.3L8.9,22c0.4,0.4,0.7,0.8,1.2,1.2l0.4,0.3l-1.3,3.4l1,0.6l2.2-2.8l0.5,0.2c0.5,0.2,1,0.3,1.6,0.4l0.5,0.1
		L15.4,28.8z M22.9,27.2C22.9,27.2,22.9,27.2,22.9,27.2L22.9,27.2z M4.9,23.1C4.9,23.1,4.9,23.1,4.9,23.1L4.9,23.1z M27,23.1
		L27,23.1C27,23.1,27,23.1,27,23.1z M4.4,10L4.4,10C4.4,10,4.4,10,4.4,10z M27,9.2L27,9.2C27,9.2,27,9.2,27,9.2z M4.9,9.2
		C4.9,9.2,4.9,9.2,4.9,9.2L4.9,9.2z M23.1,5.6C23.1,5.6,23.1,5.6,23.1,5.6L23.1,5.6z M8.8,5.6L8.8,5.6C8.8,5.6,8.8,5.6,8.8,5.6z
		 M22.9,5.1C22.9,5.1,22.9,5.1,22.9,5.1L22.9,5.1z M21.5,4.7C21.5,4.7,21.5,4.7,21.5,4.7L21.5,4.7z M16,23.3c-4,0-7.2-3.2-7.2-7.2
		S12,8.9,16,8.9c4,0,7.2,3.2,7.2,7.2S19.9,23.3,16,23.3z M16,10.3c-3.2,0-5.9,2.6-5.9,5.9S12.7,22,16,22c3.2,0,5.9-2.6,5.9-5.9
		S19.2,10.3,16,10.3z"/>
</g>
</svg>
