<svg xmlns="http://www.w3.org/2000/svg" width="31.5" height="24.756" viewBox="0 0 31.5 24.756"><defs><style>.a{fill:#fff;}</style></defs><path class="a" d="M785,63.6h30a.75.75,0,0,0,0-1.5h-1.848V43.419a1.566,1.566,0,0,0-1.562-1.562H809.4a1.565,1.565,0,0,0-1.562,1.562V62.1h-1.594v-12.3a1.567,1.567,0,0,0-1.562-1.562H802.5a1.567,1.567,0,0,0-1.562,1.562V62.1h-1.593V47.668a1.567,1.567,0,0,0-1.562-1.562h-2.188a1.567,1.567,0,0,0-1.562,1.562V62.1h-1.594V51.386a1.566,1.566,0,0,0-1.562-1.562h-2.187a1.567,1.567,0,0,0-1.562,1.562V62.1H785a.75.75,0,0,0,0,1.5Z" transform="translate(-784.25 -41.857)"/><path class="a" d="M815,65.113H785a.75.75,0,0,0,0,1.5h30a.75.75,0,0,0,0-1.5Z" transform="translate(-784.25 -41.857)"/></svg>