<?xml version="1.0" encoding="utf-8"?>
<!-- Generator: Adobe Illustrator 24.1.0, SVG Export Plug-In . SVG Version: 6.00 Build 0)  -->
<svg version="1.1" id="Layer_2" xmlns="http://www.w3.org/2000/svg" xmlns:xlink="http://www.w3.org/1999/xlink" x="0px" y="0px"
	 viewBox="0 0 32 32" style="enable-background:new 0 0 32 32;" xml:space="preserve">
<style type="text/css">
	.st0{fill:#FFFFFF;}
</style>
<g>
	<path class="st0" d="M4,15.1V9.6C4,8,5.3,6.7,6.9,6.7h2.6V18H6.9C5.3,18,4,16.7,4,15.1z"/>
	<path class="st0" d="M10.9,30.6L7.7,19.3h2.4h1.7c0.1,0,0.3,0,0.4,0l3.1,11.3H10.9z"/>
	<path class="st0" d="M25.1,22.6c-1.7-1.7-5.4-4.3-12.3-4.6c-0.1,0-0.1,0-0.2,0h-1.9V6.7h1c7.5,0,11.5-2.8,13.3-4.6V8v8.8V22.6z"/>
	<path class="st0" d="M26.4,15.6V9.2c0.9,0.8,1.5,2,1.5,3.2C28,13.6,27.4,14.8,26.4,15.6z"/>
</g>
</svg>
