<svg
    xmlns="http://www.w3.org/2000/svg" width="39" height="40" viewBox="0 0 39 40">
    <defs>
        <style>.a{fill:#ffd85c;}.b{fill:#fff;}</style>
    </defs>
    <g transform="translate(0)">
        <path class="a" d="M.5,4C.224,4,0,3.688,0,3.3V.7C0,.311.224,0,.5,0s.5.311.5.7V3.3C1,3.688.776,4,.5,4" transform="translate(20 12)"/>
        <path class="a" d="M.5,4C.224,4,0,3.689,0,3.3V.7C0,.312.224,0,.5,0s.5.312.5.7V3.3C1,3.689.776,4,.5,4" transform="translate(20 20)"/>
        <path class="a" d="M.5,4C.224,4,0,3.688,0,3.3V.7C0,.311.224,0,.5,0s.5.311.5.7V3.3C1,3.688.776,4,.5,4" transform="translate(21 12)"/>
        <path class="a" d="M.5,4C.224,4,0,3.689,0,3.3V.7C0,.312.224,0,.5,0s.5.312.5.7V3.3C1,3.689.776,4,.5,4" transform="translate(21 20)"/>
        <path class="a" d="M2,4A2,2,0,1,1,4,2,2,2,0,0,1,2,4ZM2,1.067A.933.933,0,1,0,2.933,2,.934.934,0,0,0,2,1.067Z" transform="translate(13 28)"/>
        <path class="a" d="M2,4A2,2,0,1,1,4,2,2,2,0,0,1,2,4ZM2,1.067A.933.933,0,1,0,2.933,2,.934.934,0,0,0,2,1.067Z" transform="translate(21 28)"/>
        <path class="b" d="M19.169,39.467A19.769,19.769,0,0,1,.092,24.853q-.034-.125-.065-.25A.864.864,0,0,1,1.7,24.179c.019.076.039.152.059.228A18.011,18.011,0,1,0,3.743,10.419L9.464,12.73a.864.864,0,0,1,.506.562l3.12,10.828H26.526l2.528-10.1a.864.864,0,0,1,1.676.419L28.038,25.192a.864.864,0,0,1-.838.654H12.44a.864.864,0,0,1-.83-.625L8.427,14.173,2.181,11.65a.863.863,0,0,1-.438-1.207A19.745,19.745,0,1,1,19.169,39.467" transform="translate(0 0.121)"/>
        <path class="a" d="M11.16,7H.868a.841.841,0,1,1,0-1.68h9.686l.323-.853H2.263a.878.878,0,0,1-.7-.349.818.818,0,0,1-.119-.757L2.4.574A.866.866,0,0,1,3.223,0H16.132A.854.854,0,0,1,17,.84a.854.854,0,0,1-.868.84H3.848L3.468,2.787H12.12a.877.877,0,0,1,.712.359.818.818,0,0,1,.1.77l-.96,2.533A.867.867,0,0,1,11.16,7" transform="translate(13 13)"/>
    </g>
</svg>