<svg
    xmlns="http://www.w3.org/2000/svg" width="31.5" height="31.499" viewBox="0 0 31.5 31.499">
    <defs>
        <style>.a{fill:#fff;}</style>
    </defs>
    <path class="a" d="M16.808,31.5H14.691a.989.989,0,0,1-.985-.849L13.2,27.274c-.339-.075-.676-.165-1-.267L10.07,29.678a.99.99,0,0,1-.778.377,1.01,1.01,0,0,1-.5-.132L6.957,28.862a.993.993,0,0,1-.43-1.227l1.252-3.184c-.252-.231-.5-.478-.731-.733L3.867,24.97a.958.958,0,0,1-.363.071,1,1,0,0,1-.864-.5L1.581,22.707a.992.992,0,0,1,.238-1.276L4.494,19.3c-.1-.325-.192-.661-.267-1L.848,17.794A1,1,0,0,1,0,16.808V14.691a.991.991,0,0,1,.849-.985L4.226,13.2c.072-.328.162-.665.267-1L1.823,10.07A1,1,0,0,1,1.58,8.793L2.639,6.957a1.006,1.006,0,0,1,.868-.5.975.975,0,0,1,.362.069l3.179,1.25c.24-.26.486-.506.731-.731L6.528,3.865A1,1,0,0,1,6.96,2.635L8.792,1.578a1.01,1.01,0,0,1,.5-.134.992.992,0,0,1,.777.376L12.2,4.492c.322-.1.659-.192,1-.268L13.706.848A.988.988,0,0,1,14.691,0h2.118a.988.988,0,0,1,.985.848L18.3,4.224c.334.075.672.165,1,.268l2.128-2.671a1,1,0,0,1,1.282-.239l1.829,1.056a1,1,0,0,1,.428,1.229L23.719,7.048c.257.234.5.481.733.731l3.181-1.25a.952.952,0,0,1,.363-.071,1,1,0,0,1,.865.5l1.06,1.836a.994.994,0,0,1-.24,1.277L27.005,12.2c.106.339.2.676.267,1l3.38.509a.99.99,0,0,1,.848.985v2.118a1,1,0,0,1-.849.986l-3.379.508c-.073.331-.163.667-.267,1l2.673,2.128a1,1,0,0,1,.243,1.277L28.86,24.542a1,1,0,0,1-.865.5.976.976,0,0,1-.369-.072l-3.175-1.249c-.229.252-.476.5-.733.733l1.253,3.182a1,1,0,0,1-.43,1.229l-1.834,1.056a1,1,0,0,1-.5.134.991.991,0,0,1-.775-.374L19.3,27.006c-.332.1-.67.195-1,.267l-.507,3.377A.989.989,0,0,1,16.808,31.5Zm-5.117-6.267h0l.51.189a9.994,9.994,0,0,0,1.786.479l.535.09.6,4.009h1.25l.6-4.009.536-.09a10.355,10.355,0,0,0,1.79-.478l.508-.186L22.334,28.4l1.082-.623L21.932,24l.417-.347a10.357,10.357,0,0,0,1.31-1.31l.346-.415,3.772,1.484.626-1.084-3.171-2.524.188-.509a10.334,10.334,0,0,0,.479-1.786l.092-.535,4.008-.6V15.124l-4.008-.6-.092-.534a10.315,10.315,0,0,0-.479-1.788l-.188-.508L28.4,9.167l-.626-1.084L24.006,9.567l-.346-.415a10.357,10.357,0,0,0-1.31-1.31L21.932,7.5l1.484-3.776-1.084-.625L19.81,6.263,19.3,6.077A10.193,10.193,0,0,0,17.51,5.6l-.535-.092-.6-4.005h-1.25l-.6,4.005-.534.092a10.221,10.221,0,0,0-1.79.479l-.508.187L9.166,3.094,8.082,3.72,9.566,7.494l-.416.346a10.29,10.29,0,0,0-1.31,1.31l-.346.416L3.721,8.083,3.1,9.166l3.168,2.522-.186.508A10.433,10.433,0,0,0,5.6,13.988l-.093.533-4.006.6v1.251l4.006.6.092.534a10.447,10.447,0,0,0,.48,1.788l.187.509L3.1,22.332l.625,1.084,3.774-1.484.346.416a10.29,10.29,0,0,0,1.31,1.31L9.566,24,8.082,27.779l1.084.626,2.525-3.172Zm4.058-1.388a8.1,8.1,0,1,1,8.1-8.1A8.1,8.1,0,0,1,15.749,23.845Zm0-14.691a6.6,6.6,0,1,0,6.6,6.6A6.6,6.6,0,0,0,15.749,9.154Z"/>
</svg>