<?xml version="1.0" encoding="utf-8"?>
<!-- Generator: Adobe Illustrator 24.1.0, SVG Export Plug-In . SVG Version: 6.00 Build 0)  -->
<svg version="1.1" id="Layer_2" xmlns="http://www.w3.org/2000/svg" xmlns:xlink="http://www.w3.org/1999/xlink" x="0px" y="0px"
	 viewBox="0 0 32 32" style="enable-background:new 0 0 32 32;" xml:space="preserve">
<style type="text/css">
	.st0{fill:#FFFFFF;}
</style>
<path class="st0" d="M29.8,14.9l-3.6-0.5c-0.1-0.6-0.3-1.2-0.5-1.8l2.9-2.3c0.1-0.1,0.1-0.2,0.1-0.3l-1-1.7
	c-0.1-0.1-0.2-0.1-0.3-0.1l-3.4,1.3c-0.4-0.5-0.8-0.9-1.3-1.3L24,4.8c0-0.1,0-0.2-0.1-0.3l-1.7-1c-0.1-0.1-0.2,0-0.3,0.1l-2.3,2.9
	C19,6.2,18.4,6.1,17.8,6l-0.5-3.6c0-0.1-0.1-0.2-0.2-0.2h-2c-0.1,0-0.2,0.1-0.2,0.2L14.2,6c-0.6,0.1-1.2,0.3-1.8,0.5l-2.3-2.9
	C10.1,3.5,10,3.5,9.9,3.5l-1.7,1C8,4.6,8,4.7,8,4.8l1.3,3.4C8.9,8.6,8.5,9.1,8.1,9.5L4.7,8.2c-0.1,0-0.2,0-0.3,0.1l-1,1.7
	c-0.1,0.1,0,0.2,0.1,0.3l2.9,2.3c-0.2,0.6-0.4,1.2-0.5,1.8l-3.6,0.5C2.1,14.9,2,15,2,15.2v2c0,0.1,0.1,0.2,0.2,0.2l3.6,0.5
	c0.1,0.6,0.3,1.2,0.5,1.8L3.4,22c-0.1,0.1-0.1,0.2-0.1,0.3l1,1.7c0.1,0.1,0.2,0.1,0.3,0.1l3.4-1.3c0.4,0.5,0.8,0.9,1.3,1.3L8,27.5
	c0,0.1,0,0.2,0.1,0.3l1.7,1c0.1,0.1,0.2,0,0.3-0.1l2.3-2.9c0.6,0.2,1.2,0.4,1.8,0.5l0.5,3.6c0,0.1,0.1,0.2,0.2,0.2h2
	c0.1,0,0.2-0.1,0.2-0.2l0.5-3.6c0.6-0.1,1.2-0.3,1.8-0.5l2.3,2.9c0.1,0.1,0.2,0.1,0.3,0.1l1.7-1c0.1-0.1,0.1-0.2,0.1-0.3l-1.3-3.4
	c0.5-0.4,0.9-0.8,1.3-1.3l3.4,1.3c0.1,0,0.2,0,0.3-0.1l1-1.7c0.1-0.1,0-0.2-0.1-0.3l-2.9-2.3c0.2-0.6,0.4-1.2,0.5-1.8l3.6-0.5
	c0.1,0,0.2-0.1,0.2-0.2v-2C30,15,29.9,14.9,29.8,14.9z M16,23c-3.8,0-6.9-3.1-6.9-6.9c0-3.8,3.1-6.9,6.9-6.9c3.8,0,6.9,3.1,6.9,6.9
	C22.9,19.9,19.8,23,16,23z"/>
</svg>
