<svg
    xmlns="http://www.w3.org/2000/svg" width="31.5" height="30.298" viewBox="0 0 31.5 30.298">
    <defs>
        <style>.a{fill:#fff;}</style>
    </defs>
    <path class="a" d="M663.8,333.122a.661.661,0,0,0-.525-.261h-5.85a.659.659,0,0,0,0,1.318h4.981l-3.773,13.478H642.485l-3.369-13.478h5.027a.659.659,0,0,0,0-1.318h-5.357l-1.5-6.011a.658.658,0,0,0-.638-.5h-3.552a.658.658,0,0,0,0,1.317h3.037l5.2,20.807a.659.659,0,0,0,.639.5h17.164a.659.659,0,0,0,.634-.481l4.143-14.8A.664.664,0,0,0,663.8,333.122Z" transform="translate(-632.435 -326.351)"/>
    <path class="a" d="M643.746,350.6a3.026,3.026,0,1,0,3.026,3.026A3.03,3.03,0,0,0,643.746,350.6Zm0,4.735a1.709,1.709,0,1,1,1.709-1.709A1.711,1.711,0,0,1,643.746,355.332Z" transform="translate(-632.435 -326.351)"/>
    <path class="a" d="M656.766,350.6a3.026,3.026,0,1,0,3.026,3.026A3.03,3.03,0,0,0,656.766,350.6Zm0,4.735a1.709,1.709,0,1,1,1.709-1.709A1.711,1.711,0,0,1,656.766,355.332Z" transform="translate(-632.435 -326.351)"/>
    <path class="a" d="M650.508,338.164a5.1,5.1,0,1,0-5.1-5.1A5.1,5.1,0,0,0,650.508,338.164Zm0-8.878a3.78,3.78,0,1,1-3.781,3.781A3.784,3.784,0,0,1,650.508,329.286Z" transform="translate(-632.435 -326.351)"/>
    <path class="a" d="M648.319,335.012a.659.659,0,0,0,.93.055l1.259-1.119,1.26,1.119a.658.658,0,1,0,.874-.984l-1.143-1.017,1.143-1.016a.658.658,0,1,0-.874-.984l-1.26,1.119-1.259-1.119a.658.658,0,1,0-.875.984l1.143,1.016-1.143,1.017A.657.657,0,0,0,648.319,335.012Z" transform="translate(-632.435 -326.351)"/>
    <path class="a" d="M657.271,335.792a1.126,1.126,0,0,0-1.04.677,6.1,6.1,0,0,1-11.229,0,1.125,1.125,0,0,0-1.039-.677h-1.5a1.146,1.146,0,0,0-1.112,1.424l2.062,8.246a1.145,1.145,0,0,0,1.111.868h12.262a1.147,1.147,0,0,0,1.112-.868l2.061-8.246a1.145,1.145,0,0,0-1.111-1.424Z" transform="translate(-632.435 -326.351)"/>
</svg>