<svg
    xmlns="http://www.w3.org/2000/svg" width="30" height="29.999" viewBox="0 0 30 29.999">
    <defs>
        <style>.a{fill:#fff;}</style>
    </defs>
    <path class="a" d="M16.058,30H13.941a.248.248,0,0,1-.244-.21l-.586-3.9a10.677,10.677,0,0,1-1.922-.516L8.733,28.461a.246.246,0,0,1-.316.06L6.582,27.462a.248.248,0,0,1-.105-.3L7.92,23.484a10.924,10.924,0,0,1-1.4-1.406L2.842,23.523a.242.242,0,0,1-.09.017.248.248,0,0,1-.213-.123L1.48,21.582a.247.247,0,0,1,.06-.317l3.084-2.457a10.953,10.953,0,0,1-.515-1.919L.21,16.3A.245.245,0,0,1,0,16.058V13.941A.245.245,0,0,1,.21,13.7l3.9-.587a11.009,11.009,0,0,1,.515-1.923L1.54,8.733a.245.245,0,0,1-.06-.316L2.539,6.582a.248.248,0,0,1,.213-.123.243.243,0,0,1,.09.017L6.515,7.921a10.988,10.988,0,0,1,1.4-1.406L6.476,2.841a.249.249,0,0,1,.105-.3L8.417,1.478a.246.246,0,0,1,.316.06L11.19,4.622a10.982,10.982,0,0,1,1.922-.515L13.7.21A.245.245,0,0,1,13.941,0h2.117A.245.245,0,0,1,16.3.21l.585,3.9a10.973,10.973,0,0,1,1.923.516l2.457-3.085a.245.245,0,0,1,.316-.06l1.833,1.059a.247.247,0,0,1,.106.3L22.078,6.515a10.89,10.89,0,0,1,1.407,1.406l3.672-1.444a.235.235,0,0,1,.091-.018.247.247,0,0,1,.213.123l1.06,1.835a.244.244,0,0,1-.06.316L25.374,11.19a10.917,10.917,0,0,1,.516,1.921l3.9.587a.245.245,0,0,1,.21.244v2.117a.245.245,0,0,1-.21.244l-3.9.588a10.879,10.879,0,0,1-.516,1.919l3.086,2.457a.246.246,0,0,1,.06.317l-1.06,1.835a.247.247,0,0,1-.213.124.244.244,0,0,1-.09-.017l-3.672-1.445a10.89,10.89,0,0,1-1.407,1.406l1.444,3.675a.246.246,0,0,1-.106.3l-1.833,1.057a.25.25,0,0,1-.123.033.245.245,0,0,1-.193-.093L18.81,25.376a10.958,10.958,0,0,1-1.923.513l-.585,3.9A.248.248,0,0,1,16.058,30ZM15,7.654A7.346,7.346,0,1,0,22.346,15,7.354,7.354,0,0,0,15,7.654Z"/>
</svg>