<svg xmlns="http://www.w3.org/2000/svg" width="32" height="25" viewBox="0 0 32 25"><defs><style>.a{fill:#fff;}</style></defs><g transform="translate(0 0)"><path class="a" d="M5.312,13.279H0V1.562A1.564,1.564,0,0,1,1.562,0H3.75A1.564,1.564,0,0,1,5.312,1.562V13.278ZM1.562,1.5a.066.066,0,0,0-.062.062V11.779H3.812V1.562A.066.066,0,0,0,3.75,1.5Z" transform="translate(2.875 7.968)"/><path class="a" d="M5.312,17H0V1.562A1.564,1.564,0,0,1,1.562,0H3.75A1.564,1.564,0,0,1,5.312,1.562V17ZM1.562,1.5a.066.066,0,0,0-.062.062V15.5H3.812V1.562A.066.066,0,0,0,3.75,1.5Z" transform="translate(9.78 4.249)"/><path class="a" d="M5.312,14.873H0V1.562A1.564,1.564,0,0,1,1.562,0H3.75A1.564,1.564,0,0,1,5.312,1.562v13.31ZM1.562,1.5a.067.067,0,0,0-.062.062V13.373H3.812V1.562A.067.067,0,0,0,3.75,1.5Z" transform="translate(16.685 6.374)"/><path class="a" d="M5.312,21.247H0V1.562A1.564,1.564,0,0,1,1.562,0H3.75A1.564,1.564,0,0,1,5.312,1.562V21.246ZM1.562,1.5a.066.066,0,0,0-.062.062V19.747H3.812V1.562A.066.066,0,0,0,3.75,1.5Z" transform="translate(23.59 0)"/><path class="a" d="M30.75,1.5H.75A.75.75,0,0,1,.75,0h30a.75.75,0,0,1,0,1.5" transform="translate(0 20.24)"/><path class="a" d="M30.75,1.5H.75A.75.75,0,0,1,.75,0h30a.75.75,0,0,1,0,1.5" transform="translate(0 23.257)"/></g></svg>