<svg
    xmlns="http://www.w3.org/2000/svg" width="31.5" height="30.306" viewBox="0 0 31.5 30.306">
    <defs>
        <style>.a{fill:#fff;}</style>
    </defs>
    <path class="a" d="M31.348,6.768a.751.751,0,0,0-.6-.3H24.936a.75.75,0,0,0,0,1.5h4.825l-3.7,13.206H10.16L6.858,7.971h4.875a.75.75,0,0,0,0-1.5H6.483L5.008.568A.752.752,0,0,0,4.28,0H.75a.75.75,0,0,0,0,1.5H3.695L8.847,22.109a.749.749,0,0,0,.727.568H26.633a.752.752,0,0,0,.723-.548L31.473,7.423a.753.753,0,0,0-.125-.655"/>
    <path class="a" d="M3.1,6.206a3.1,3.1,0,1,1,3.1-3.1A3.107,3.107,0,0,1,3.1,6.206ZM3.1,1.5a1.6,1.6,0,1,0,1.6,1.6A1.6,1.6,0,0,0,3.1,1.5Z" transform="translate(8.236 24.099)"/>
    <path class="a" d="M3.1,6.206a3.1,3.1,0,1,1,3.1-3.1A3.107,3.107,0,0,1,3.1,6.206ZM3.1,1.5a1.6,1.6,0,1,0,1.6,1.6A1.6,1.6,0,0,0,3.1,1.5Z" transform="translate(21.177 24.099)"/>
    <path class="a" d="M5.162,10.323a5.161,5.161,0,1,1,5.161-5.161A5.167,5.167,0,0,1,5.162,10.323Zm0-8.823A3.661,3.661,0,1,0,8.824,5.162,3.666,3.666,0,0,0,5.162,1.5Z" transform="translate(12.897 1.609)"/>
    <path class="a" d="M.189,4.247a.749.749,0,0,0,1.059.062L2.436,3.253,3.625,4.309a.75.75,0,0,0,1-1.121L3.565,2.25l1.056-.939a.75.75,0,0,0-1-1.121L2.436,1.247,1.248.19a.75.75,0,0,0-1,1.121l1.056.939L.251,3.188A.751.751,0,0,0,.189,4.247" transform="translate(15.623 4.521)"/>
</svg>