<?xml version="1.0" encoding="utf-8"?>
<!-- Generator: Adobe Illustrator 24.1.0, SVG Export Plug-In . SVG Version: 6.00 Build 0)  -->
<svg version="1.1" id="Layer_2" xmlns="http://www.w3.org/2000/svg" xmlns:xlink="http://www.w3.org/1999/xlink" x="0px" y="0px"
	 viewBox="0 0 32 32" style="enable-background:new 0 0 32 32;" xml:space="preserve">
<style type="text/css">
	.st0{fill:#FFFFFF;}
</style>
<g>
	<g>
		<path class="st0" d="M30.4,8.4c-0.1-0.2-0.3-0.2-0.5-0.2h-5.4c-0.3,0-0.6,0.3-0.6,0.6c0,0.3,0.3,0.6,0.6,0.6h4.6l-3.5,12.5H10.7
			L7.6,9.4h4.6c0.3,0,0.6-0.3,0.6-0.6c0-0.3-0.3-0.6-0.6-0.6h-5L5.9,2.6C5.9,2.3,5.6,2.1,5.3,2.1H2.1c-0.3,0-0.6,0.3-0.6,0.6
			s0.3,0.6,0.6,0.6h2.8l4.8,19.2C9.7,22.9,10,23,10.3,23h15.9c0.3,0,0.5-0.2,0.6-0.4l3.8-13.7C30.6,8.7,30.5,8.5,30.4,8.4z"/>
		<path class="st0" d="M11.9,24.5c-1.5,0-2.8,1.3-2.8,2.8c0,1.5,1.3,2.8,2.8,2.8c1.5,0,2.8-1.3,2.8-2.8
			C14.7,25.8,13.4,24.5,11.9,24.5z M11.9,28.9c-0.9,0-1.6-0.7-1.6-1.6c0-0.9,0.7-1.6,1.6-1.6c0.9,0,1.6,0.7,1.6,1.6
			C13.5,28.2,12.8,28.9,11.9,28.9z"/>
		<path class="st0" d="M23.9,24.5c-1.5,0-2.8,1.3-2.8,2.8c0,1.5,1.3,2.8,2.8,2.8c1.5,0,2.8-1.3,2.8-2.8
			C26.7,25.8,25.5,24.5,23.9,24.5z M23.9,28.9c-0.9,0-1.6-0.7-1.6-1.6c0-0.9,0.7-1.6,1.6-1.6c0.9,0,1.6,0.7,1.6,1.6
			C25.5,28.2,24.8,28.9,23.9,28.9z"/>
		<path class="st0" d="M18.1,13.1c2.6,0,4.7-2.1,4.7-4.7s-2.1-4.7-4.7-4.7s-4.7,2.1-4.7,4.7S15.5,13.1,18.1,13.1z M18.1,4.9
			c1.9,0,3.5,1.6,3.5,3.5s-1.6,3.5-3.5,3.5s-3.5-1.6-3.5-3.5S16.2,4.9,18.1,4.9z"/>
		<path class="st0" d="M16.1,10.1c0.1,0.1,0.3,0.2,0.5,0.2c0.1,0,0.3-0.1,0.4-0.2l1.2-1l1.2,1c0.1,0.1,0.3,0.2,0.4,0.2
			c0.2,0,0.3-0.1,0.5-0.2c0.2-0.3,0.2-0.6-0.1-0.9l-1.1-0.9l1.1-0.9c0.3-0.2,0.3-0.6,0.1-0.9c-0.2-0.3-0.6-0.3-0.9-0.1l-1.2,1
			l-1.2-1c-0.2-0.2-0.6-0.2-0.9,0.1c-0.2,0.3-0.2,0.6,0.1,0.9l1.1,0.9l-1.1,0.9C15.9,9.5,15.9,9.9,16.1,10.1z"/>
	</g>
	<path class="st0" d="M24.4,10.9c-0.4,0-0.8,0.2-1,0.6c-0.9,2-2.9,3.4-5.2,3.4s-4.3-1.4-5.2-3.4c-0.2-0.4-0.5-0.6-1-0.6h-1.4
		c-0.7,0-1.2,0.6-1,1.3l1.9,7.6c0.1,0.5,0.5,0.8,1,0.8H24c0.5,0,0.9-0.3,1-0.8l1.9-7.6c0.2-0.7-0.3-1.3-1-1.3H24.4z"/>
</g>
</svg>
