<?xml version="1.0" encoding="utf-8"?>
<!-- Generator: Adobe Illustrator 24.1.0, SVG Export Plug-In . SVG Version: 6.00 Build 0)  -->
<svg version="1.1" id="Layer_2" xmlns="http://www.w3.org/2000/svg" xmlns:xlink="http://www.w3.org/1999/xlink" x="0px" y="0px"
	 viewBox="0 0 32 32" style="enable-background:new 0 0 32 32;" xml:space="preserve">
<style type="text/css">
	.st0{fill:#FFFFFF;}
</style>
<g>
	<path class="st0" d="M30.4,8.4c-0.1-0.2-0.3-0.3-0.6-0.3h-5.4c-0.4,0-0.7,0.3-0.7,0.7c0,0.4,0.3,0.7,0.7,0.7h4.4l-3.4,12.1H10.9
		l-3-12.1h4.5c0.4,0,0.7-0.3,0.7-0.7c0-0.4-0.3-0.7-0.7-0.7H7.5L6.1,2.7C6,2.4,5.7,2.1,5.4,2.1H2.2c-0.4,0-0.7,0.3-0.7,0.7
		s0.3,0.7,0.7,0.7h2.7l4.7,19c0.1,0.3,0.4,0.5,0.7,0.5H26c0.3,0,0.6-0.2,0.7-0.5L30.5,9C30.6,8.8,30.5,8.6,30.4,8.4z"/>
	<path class="st0" d="M11.9,24.4c-1.6,0-2.9,1.3-2.9,2.9c0,1.6,1.3,2.9,2.9,2.9s2.9-1.3,2.9-2.9C14.8,25.7,13.5,24.4,11.9,24.4z
		 M11.9,28.7c-0.8,0-1.5-0.7-1.5-1.5c0-0.8,0.7-1.5,1.5-1.5c0.8,0,1.5,0.7,1.5,1.5C13.4,28.1,12.7,28.7,11.9,28.7z"/>
	<path class="st0" d="M23.9,24.4c-1.6,0-2.9,1.3-2.9,2.9c0,1.6,1.3,2.9,2.9,2.9c1.6,0,2.9-1.3,2.9-2.9
		C26.8,25.7,25.5,24.4,23.9,24.4z M23.9,28.7c-0.8,0-1.5-0.7-1.5-1.5c0-0.8,0.7-1.5,1.5-1.5c0.8,0,1.5,0.7,1.5,1.5
		C25.3,28.1,24.7,28.7,23.9,28.7z"/>
	<path class="st0" d="M18.1,13.2c2.6,0,4.8-2.1,4.8-4.8s-2.1-4.8-4.8-4.8s-4.8,2.1-4.8,4.8S15.5,13.2,18.1,13.2z M18.1,5
		c1.9,0,3.4,1.5,3.4,3.4s-1.5,3.4-3.4,3.4c-1.9,0-3.4-1.5-3.4-3.4S16.3,5,18.1,5z"/>
	<path class="st0" d="M16,10.3c0.1,0.2,0.3,0.2,0.5,0.2c0.2,0,0.3-0.1,0.5-0.2l1.1-1l1.1,1c0.1,0.1,0.3,0.2,0.5,0.2
		c0.2,0,0.4-0.1,0.5-0.2c0.3-0.3,0.2-0.7-0.1-1l-1-0.9l1-0.9c0.3-0.3,0.3-0.7,0.1-1c-0.3-0.3-0.7-0.3-1-0.1l-1.1,1l-1.1-1
		c-0.3-0.3-0.7-0.2-1,0.1c-0.3,0.3-0.2,0.7,0.1,1l1,0.9l-1,0.9C15.8,9.5,15.8,10,16,10.3z"/>
</g>
</svg>
