<?xml version="1.0" encoding="utf-8"?>
<!-- Generator: Adobe Illustrator 24.1.0, SVG Export Plug-In . SVG Version: 6.00 Build 0)  -->
<svg version="1.1" id="Layer_1" xmlns="http://www.w3.org/2000/svg" xmlns:xlink="http://www.w3.org/1999/xlink" x="0px" y="0px"
	 viewBox="0 0 32 32" style="enable-background:new 0 0 32 32;" xml:space="preserve">
<style type="text/css">
	.st0{fill:#FFFFFF;}
</style>
<g>
	<path class="st0" d="M1,25.2h30c0.4,0,0.8-0.3,0.8-0.8s-0.3-0.8-0.8-0.8h-1.8V5.4c0-0.9-0.7-1.6-1.6-1.6h-2.2
		c-0.9,0-1.6,0.7-1.6,1.6v18.3h-1.6v-12c0-0.9-0.7-1.6-1.6-1.6h-2.2c-0.9,0-1.6,0.7-1.6,1.6v12h-1.6V9.6c0-0.9-0.7-1.6-1.6-1.6h-2.2
		C10.7,8,10,8.7,10,9.6v14.1H8.4V13.3c0-0.9-0.7-1.6-1.6-1.6H4.7c-0.9,0-1.6,0.7-1.6,1.6v10.4H1c-0.4,0-0.8,0.3-0.8,0.8
		S0.6,25.2,1,25.2z M25.3,5.4C25.3,5.3,25.4,5.3,25.3,5.4l2.2-0.1c0,0,0.1,0,0.1,0.1v18.2h-2.3V5.4z M18.4,11.7
		C18.4,11.7,18.5,11.7,18.4,11.7l2.2-0.1c0,0,0.1,0,0.1,0.1v11.8h-2.3V11.7z M11.5,9.6C11.5,9.6,11.6,9.5,11.5,9.6l2.2-0.1
		c0,0,0.1,0,0.1,0.1v13.9h-2.3V9.6z M4.6,13.3C4.6,13.3,4.7,13.3,4.6,13.3l2.2-0.1c0,0,0.1,0,0.1,0.1v10.2H4.6V13.3z"/>
	<path class="st0" d="M31,26.7H1c-0.4,0-0.8,0.3-0.8,0.8s0.3,0.8,0.8,0.8h30c0.4,0,0.8-0.3,0.8-0.8S31.4,26.7,31,26.7z"/>
</g>
</svg>
