<?xml version="1.0" encoding="utf-8"?>
<!-- Generator: Adobe Illustrator 24.1.0, SVG Export Plug-In . SVG Version: 6.00 Build 0)  -->
<svg version="1.1" id="Layer_2" xmlns="http://www.w3.org/2000/svg" xmlns:xlink="http://www.w3.org/1999/xlink" x="0px" y="0px"
	 viewBox="0 0 32 32" style="enable-background:new 0 0 32 32;" xml:space="preserve">
<style type="text/css">
	.st0{fill:#FFFFFF;}
</style>
<g>
	<path class="st0" d="M1,25.3h30c0.4,0,0.8-0.3,0.8-0.8s-0.3-0.8-0.8-0.8h-1.8V5.1c0-0.9-0.7-1.6-1.6-1.6h-2.2
		c-0.9,0-1.6,0.7-1.6,1.6v18.7h-1.6V11.5c0-0.9-0.7-1.6-1.6-1.6h-2.2c-0.9,0-1.6,0.7-1.6,1.6v12.3h-1.6V9.3c0-0.9-0.7-1.6-1.6-1.6
		h-2.2c-0.9,0-1.6,0.7-1.6,1.6v14.4H8.4V13.1c0-0.9-0.7-1.6-1.6-1.6H4.7c-0.9,0-1.6,0.7-1.6,1.6v10.7H1c-0.4,0-0.8,0.3-0.8,0.8
		S0.6,25.3,1,25.3z"/>
	<path class="st0" d="M31,26.8H1c-0.4,0-0.8,0.3-0.8,0.8s0.3,0.8,0.8,0.8h30c0.4,0,0.8-0.3,0.8-0.8S31.4,26.8,31,26.8z"/>
</g>
</svg>
