<?xml version="1.0" encoding="utf-8"?>
<!-- Generator: Adobe Illustrator 24.1.0, SVG Export Plug-In . SVG Version: 6.00 Build 0)  -->
<svg version="1.1" id="Layer_1" xmlns="http://www.w3.org/2000/svg" xmlns:xlink="http://www.w3.org/1999/xlink" x="0px" y="0px"
	 viewBox="0 0 32 32" style="enable-background:new 0 0 32 32;" xml:space="preserve">
<style type="text/css">
	.st0{fill:#FFFFFF;}
</style>
<g>
	<path class="st0" d="M8.1,8v8.1H7c-0.7,0-1.3-0.6-1.3-1.3V9.4C5.7,8.6,6.3,8,7,8H8.1 M9.6,6.5H7c-1.6,0-2.8,1.3-2.8,2.8v5.4
		c0,1.6,1.3,2.8,2.8,2.8h2.6V6.5L9.6,6.5z"/>
	<path class="st0" d="M11.1,20.4l2.2,8.1h-1.3l-2.2-8.1h0.4H11.1 M11.9,18.9h-1.6H7.9L11,30h4.4l-3.1-11.1
		C12.2,18.9,12,18.9,11.9,18.9L11.9,18.9z"/>
	<path class="st0" d="M23.5,5.1v2.7v8.6v2.7c-2.2-1.4-5.6-2.7-10.4-2.9c-0.1,0-0.2,0-0.3,0h-0.4V8C17.6,7.9,21.2,6.5,23.5,5.1 M25,2
		c-1.8,1.8-5.7,4.5-13.1,4.5h-1v11.1h1.9c0.1,0,0.1,0,0.2,0c6.7,0.2,10.4,2.8,12.1,4.5v-5.7V7.8V2L25,2z"/>
	<path class="st0" d="M26.3,8.9v6.3c0.9-0.8,1.5-1.9,1.5-3.2C27.8,10.8,27.2,9.7,26.3,8.9L26.3,8.9z"/>
</g>
</svg>
