<svg xmlns="http://www.w3.org/2000/svg" width="35.382" height="35.381" viewBox="0 0 35.382 35.381"><defs><style>.a{fill:#337fff;}.b{fill:#fff;}</style></defs><g transform="translate(-107 -230.001)"><path class="a" d="M35.382,17.691A17.691,17.691,0,1,0,14.927,35.167V22.805H10.435V17.691h4.492v-3.9c0-4.434,2.641-6.883,6.682-6.883a27.235,27.235,0,0,1,3.96.345V11.61H23.338a2.557,2.557,0,0,0-2.883,2.763v3.318h4.906l-.784,5.114H20.455V35.167A17.7,17.7,0,0,0,35.382,17.691" transform="translate(107 230)"/><path class="b" d="M24.577,22.805l.784-5.114H20.455V14.372a2.556,2.556,0,0,1,2.883-2.762h2.231V7.256a27.181,27.181,0,0,0-3.961-.346c-4.04,0-6.681,2.45-6.681,6.883v3.9H10.435v5.114h4.492V35.167a17.874,17.874,0,0,0,5.528,0V22.805Z" transform="translate(107 230)"/></g></svg>