<svg xmlns="http://www.w3.org/2000/svg" width="35.382" height="35.381" viewBox="0 0 35.382 35.381"><defs><style>.a{fill:#00d95f;}.b,.c{fill:#fff;}.c{fill-rule:evenodd;}</style></defs><path class="a" d="M35.382,290.6a17.691,17.691,0,1,1-17.691-17.69A17.69,17.69,0,0,1,35.382,290.6" transform="translate(0 -272.91)"/><path class="b" d="M8.132,300.612l1.475-5.5a10.184,10.184,0,1,1,4.057,4.022Zm5.807-3.545.348.208a8.272,8.272,0,1,0-2.828-2.8l.213.351-.823,3.072Z" transform="translate(0 -272.91)"/><path class="c" d="M22.274,291.612a1.7,1.7,0,0,0-1.455-.328c-.378.154-.619.746-.864,1.049a.365.365,0,0,1-.469.1,6.586,6.586,0,0,1-3.289-2.818.4.4,0,0,1,.051-.551,2.229,2.229,0,0,0,.6-.97,2.122,2.122,0,0,0-.267-1.148,2.72,2.72,0,0,0-.847-1.277,1.161,1.161,0,0,0-1.262.187,2.559,2.559,0,0,0-.888,2.028,2.889,2.889,0,0,0,.08.644,5.341,5.341,0,0,0,.617,1.424,11.421,11.421,0,0,0,.645.98,9.952,9.952,0,0,0,2.8,2.6,8.423,8.423,0,0,0,1.744.829,3.874,3.874,0,0,0,2.03.321,2.46,2.46,0,0,0,1.841-1.37,1.191,1.191,0,0,0,.085-.7c-.1-.481-.756-.768-1.146-1" transform="translate(0 -272.91)"/></svg>