<?xml version="1.0" encoding="utf-8"?>
<!-- Generator: Adobe Illustrator 25.1.0, SVG Export Plug-In . SVG Version: 6.00 Build 0)  -->
<svg version="1.1" id="Layer_1" xmlns="http://www.w3.org/2000/svg" xmlns:xlink="http://www.w3.org/1999/xlink" x="0px" y="0px"
	 viewBox="0 0 22 20" style="enable-background:new 0 0 22 20;" xml:space="preserve">
<style type="text/css">
	.st0{fill:#5686F6;}
</style>
<path class="st0" d="M19.2,14.3C19.2,14.3,19.2,14.3,19.2,14.3c-0.7,0-1.4,0.3-1.9,0.8l-2.3-1.4c0.1-0.4,0.2-0.8,0.2-1.2
	c0-2-1.5-3.7-3.4-4.1V4.9c0.4-0.1,0.7-0.3,1-0.6c0.5-0.5,0.7-1.1,0.7-1.8C13.5,1.1,12.4,0,11,0C9.6,0,8.5,1.1,8.5,2.5
	c0,1.1,0.7,2.1,1.8,2.4v3.6c-1.9,0.4-3.4,2-3.4,4.1c0,0.3,0.1,0.7,0.1,1L4.6,15c-0.5-0.4-1.1-0.7-1.8-0.7c-1.5,0-2.8,1.3-2.8,2.8
	C0,18.7,1.3,20,2.8,20s2.8-1.3,2.8-2.8v0c0-0.3-0.1-0.6-0.2-0.9l2.2-1.3c0.7,1.1,2,1.8,3.4,1.8c1.3,0,2.5-0.6,3.3-1.6l2.3,1.3
	c-0.1,0.2-0.1,0.5-0.1,0.7c0,1.5,1.3,2.8,2.8,2.8s2.8-1.3,2.8-2.8v0C22,15.6,20.7,14.3,19.2,14.3z M2.8,18.5c-0.7,0-1.3-0.6-1.3-1.3
	c0-0.7,0.6-1.3,1.3-1.3s1.3,0.6,1.3,1.3C4.1,17.9,3.5,18.5,2.8,18.5z M11,1.5c0.6,0,1,0.5,1,1v0c0,0.3-0.1,0.5-0.3,0.7
	c-0.2,0.2-0.4,0.3-0.7,0.3c0,0,0,0,0,0c-0.6,0-1-0.5-1-1C10,2,10.4,1.5,11,1.5z M20.5,17.2c0,0.7-0.6,1.3-1.3,1.3s-1.3-0.6-1.3-1.3
	c0-0.7,0.6-1.3,1.3-1.3c0,0,0,0,0,0C19.9,15.8,20.5,16.4,20.5,17.2L20.5,17.2z"/>
</svg>
