<svg xmlns="http://www.w3.org/2000/svg" width="16.547" height="16.584" viewBox="0 0 16.547 16.584"><defs><style>.a{fill:none;stroke:#5686f6;}.b{fill:#5686f6;fill-rule:evenodd;}</style></defs><g transform="translate(-1026.293 -426.123)"><path class="a" d="M8.132,295.415l1.1-4.114a7.612,7.612,0,1,1,3.032,3.006Z" transform="translate(1018.868 146.585)"/><path class="b" d="M20.078,290.082a1.273,1.273,0,0,0-1.088-.245c-.283.115-.463.558-.646.784a.273.273,0,0,1-.351.075,4.923,4.923,0,0,1-2.458-2.106.3.3,0,0,1,.038-.412,1.666,1.666,0,0,0,.446-.725,1.586,1.586,0,0,0-.2-.858,2.033,2.033,0,0,0-.633-.954.868.868,0,0,0-.943.14,1.913,1.913,0,0,0-.664,1.516,2.159,2.159,0,0,0,.06.481,3.991,3.991,0,0,0,.461,1.064,8.535,8.535,0,0,0,.482.732,7.438,7.438,0,0,0,2.091,1.941,6.293,6.293,0,0,0,1.3.62,2.9,2.9,0,0,0,1.517.24,1.839,1.839,0,0,0,1.376-1.024.89.89,0,0,0,.064-.522c-.078-.359-.565-.574-.857-.747" transform="translate(1017.492 145.191)"/></g></svg>