<svg xmlns="http://www.w3.org/2000/svg" width="24.702" height="25.369" viewBox="0 0 24.702 25.369"><defs><style>.a,.b,.d{fill:none;}.a,.b,.c,.d{stroke:#4e5d6b;stroke-miterlimit:10;}.a{stroke-width:1.2px;}.c{fill:#fff;}.d{stroke-linecap:round;}</style></defs><g transform="translate(0.6 0.501)"><path class="a" d="M158.727,540.137v15.071a1,1,0,0,1-1,1H138.085a1,1,0,0,1-1-1V535.563a1,1,0,0,1,1-1h13" transform="translate(-137.087 -531.938)"/><path class="b" d="M159.2,536.59l-3.512-2.962a.2.2,0,0,1-.025-.285l.767-.909a1.4,1.4,0,0,1,1.967-.167l1.689,1.423a1.4,1.4,0,0,1,.166,1.966l-.767.91A.2.2,0,0,1,159.2,536.59Z" transform="translate(-137.087 -531.938)"/><path class="c" d="M143.87,551.2a.2.2,0,0,1-.066-.2l1.291-5.1a.214.214,0,0,1,.041-.081l10.523-12.479a.2.2,0,0,1,.285-.024l3.513,2.962a.2.2,0,0,1,.024.285l-10.523,12.478a.207.207,0,0,1-.073.055l-4.8,2.135A.2.2,0,0,1,143.87,551.2Z" transform="translate(-137.087 -531.938)"/><line class="d" x2="3.684" y2="3.107" transform="translate(8.18 13.868)"/><line class="d" x2="1.268" y2="1.069" transform="translate(7.08 17.624)"/></g></svg>