<svg xmlns="http://www.w3.org/2000/svg" width="63.526" height="67.227" viewBox="0 0 63.526 67.227"><defs><style>.a,.b{fill:#fff;stroke-miterlimit:10;}.a{stroke:#323f4f;}.b,.c{stroke:#006aff;stroke-width:2px;}.c{fill:none;stroke-linecap:round;stroke-linejoin:round;}</style></defs><g transform="translate(766.724 -280.417)"><path class="a" d="M-706.051,295.829h-41.878a6.488,6.488,0,0,0-6.488,6.488h0a.964.964,0,0,0,.964.964h43.781a.964.964,0,0,1,.964.964v24.678a.964.964,0,0,0,.964.964h1.693a6.582,6.582,0,0,0,6.582-6.581v-20.9A6.582,6.582,0,0,0-706.051,295.829Z" transform="translate(-4.229)"/><path class="a" d="M-711.678,300.514h-43.807a5.525,5.525,0,0,0-5.525,5.525v38.8a1.582,1.582,0,0,0,2.7,1.118l10-10a4.69,4.69,0,0,1,3.316-1.373h33.312a5.618,5.618,0,0,0,5.617-5.618V306.132A5.618,5.618,0,0,0-711.678,300.514Z" transform="translate(-5.214 0.7)"/><circle class="b" cx="16.5" cy="16.5" r="16.5" transform="translate(-752.251 281.417)"/><path class="c" d="M-744.5,303.565l5.833,5.185L-727,297.083" transform="translate(0 -5)"/></g></svg>