<?xml version="1.0" encoding="utf-8"?>
<!-- Generator: Adobe Illustrator 24.1.2, SVG Export Plug-In . SVG Version: 6.00 Build 0)  -->
<svg version="1.1" id="Layer_1" xmlns="http://www.w3.org/2000/svg" xmlns:xlink="http://www.w3.org/1999/xlink" x="0px" y="0px"
	 viewBox="0 0 26 20" style="enable-background:new 0 0 26 20;" xml:space="preserve">
<style type="text/css">
	.st0{fill:#F5A621;}
</style>
<path class="st0" d="M26,5.5l0-0.2l-3.5-5l-0.1,0.1l-0.1,0l0.1-0.1l-0.1-0.1l-0.1,0.2l-0.1,0l0-0.2L3.9,0L3.7,0.1L0,5.1l0,0.2l0,0.2
	l12.6,14.3l0.2,0.1l0.4,0l0,0l0.2-0.1L25.9,5.7L26,5.5z M17.8,5.8L13,17.4L8.1,5.8H17.8z M11.3,1.2L7.4,4.4L5,1.2H11.3z M6.1,4.7
	H1.6l2.2-3L6.1,4.7z M6.9,5.8L11.1,16L1.8,5.8H6.9z M8.9,4.7l4-3.3l4,3.3H8.9z M20.9,1.2l-2.4,3.2l-3.9-3.2H20.9z M19.1,5.8h5
	L14.8,16L19.1,5.8z M19.8,4.7l2.2-3l2.2,3H19.8z"/>
</svg>
