<svg xmlns="http://www.w3.org/2000/svg" width="22.005" height="19.953" viewBox="0 0 22.005 19.953"><defs><style>.a{fill:#4e5d6b;}.b{fill:none;stroke:#4e5d6b;stroke-miterlimit:10;stroke-width:1.5px;}</style></defs><g transform="translate(0.75 0.75)"><path class="a" d="M14.366,12.571a3.377,3.377,0,1,1-3.377-3.377,3.377,3.377,0,0,1,3.377,3.377" transform="translate(-0.749 -0.75)"/><circle class="b" cx="3.377" cy="3.377" r="3.377" transform="translate(6.863 8.444)"/><path class="b" d="M12.75,2.51A1.761,1.761,0,1,1,10.99.75,1.76,1.76,0,0,1,12.75,2.51Z" transform="translate(-0.749 -0.75)"/><path class="b" d="M21.254,17.152A2.052,2.052,0,1,1,19.2,15.1,2.051,2.051,0,0,1,21.254,17.152Z" transform="translate(-0.749 -0.75)"/><path class="b" d="M4.852,17.152A2.052,2.052,0,1,1,2.8,15.1,2.051,2.051,0,0,1,4.852,17.152Z" transform="translate(-0.749 -0.75)"/><line class="b" y2="4.923" transform="translate(10.24 3.521)"/><line class="b" x2="3.429" y2="2.038" transform="translate(13.266 13.315)"/><line class="b" y1="1.883" x2="3.153" transform="translate(3.71 13.315)"/></g></svg>