<?xml version="1.0" encoding="utf-8"?>
<!-- Generator: Adobe Illustrator 25.1.0, SVG Export Plug-In . SVG Version: 6.00 Build 0)  -->
<svg version="1.1" id="Layer_1" xmlns="http://www.w3.org/2000/svg" xmlns:xlink="http://www.w3.org/1999/xlink" x="0px" y="0px"
	 viewBox="0 0 17.8 19.2" style="enable-background:new 0 0 17.8 19.2;" xml:space="preserve">
<style type="text/css">
	.st0{fill:#4E5D6B;}
</style>
<path class="st0" d="M16.7,1.4h-2.3c0,0,0,0,0,0V0.5C14.4,0.2,14.2,0,14,0c-0.3,0-0.5,0.2-0.5,0.5v0.9c0,0,0,0,0,0h-1.6c0,0,0,0,0,0
	V0.5C12,0.2,11.7,0,11.5,0C11.2,0,11,0.2,11,0.5v0.9c0,0,0,0,0,0H6.4c0,0,0,0,0,0V0.5C6.4,0.2,6.2,0,5.9,0C5.7,0,5.5,0.2,5.5,0.5
	v0.9c0,0,0,0,0,0H3.9c0,0,0,0,0,0V0.5C3.9,0.2,3.7,0,3.5,0C3.2,0,3,0.2,3,0.5v0.9c0,0,0,0,0,0H1c-0.6,0-1,0.5-1,1v15.7
	c0,0.6,0.5,1,1,1h13.6l3.1-2.8V2.4C17.7,1.9,17.3,1.4,16.7,1.4z M1.1,7.2h15.5v8.6h-2.2c-0.3,0-0.5,0.2-0.5,0.5v1.7H1.1V7.2z"/>
</svg>
