<svg xmlns="http://www.w3.org/2000/svg" width="435.001" height="354.903" viewBox="0 0 435.001 354.903"><defs><style>.a{fill:#e5e5ed;stroke:rgba(0,0,0,0);}.a,.h,.j,.k{stroke-miterlimit:10;}.b{fill:#cfd0d4;}.c{fill:#fffffd;}.d{fill:#383838;}.e{fill:#c8cdd4;}.f{fill:#0989ff;}.g{fill:#f7f7f7;}.h,.k{fill:none;stroke:#0083ff;stroke-linecap:round;}.h{stroke-width:1.5px;}.i{fill:#acb3ba;}.j{fill:#fff;stroke:#e4e4e4;}.j,.k{stroke-width:0.498px;}</style></defs><g transform="translate(-891.502 -699.06)"><g transform="translate(631.938 387.012)"><path class="a" d="M-16632-442.6a23,23,0,0,1-23-23V-702.069h-.287v-46h434v46h-.217v236.463a23,23,0,0,1-23,23Z" transform="translate(16915.352 1109.055)"/><rect class="b" width="32.969" height="43.959" rx="10" transform="translate(287.004 394.529)"/><rect class="c" width="32.969" height="43.959" rx="10" transform="translate(286.037 393.078)"/><path class="d" d="M327.338,458.486h-2.611v-5.907h-.046a3.77,3.77,0,0,1-.756.836,4.081,4.081,0,0,1-.961.584,4.947,4.947,0,0,1-1.1.332,6.439,6.439,0,0,1-1.145.1,4.577,4.577,0,0,1-3.858-1.889,6.015,6.015,0,0,1-.939-1.981,8.663,8.663,0,0,1-.309-2.312,8.478,8.478,0,0,1,.343-2.45,5.856,5.856,0,0,1,1.03-2,4.813,4.813,0,0,1,1.729-1.351,5.65,5.65,0,0,1,2.438-.492,5.1,5.1,0,0,1,2.129.446,3.229,3.229,0,0,1,1.534,1.477h.045v-1.6h2.473ZM318.225,448.2a6.765,6.765,0,0,0,.172,1.523,3.844,3.844,0,0,0,.573,1.328,3.192,3.192,0,0,0,1.019.95,2.915,2.915,0,0,0,1.511.366,2.856,2.856,0,0,0,2.507-1.157,5.124,5.124,0,0,0,.813-3.011,5.033,5.033,0,0,0-.836-3.068,2.9,2.9,0,0,0-2.484-1.122,2.8,2.8,0,0,0-1.419.355,3.2,3.2,0,0,0-1.031.939,4.231,4.231,0,0,0-.618,1.34A5.893,5.893,0,0,0,318.225,448.2Z" transform="translate(-19.99 -29.262)"/><rect class="b" width="32.969" height="43.959" rx="10" transform="translate(325.594 394.529)"/><rect class="c" width="32.969" height="43.959" rx="10" transform="translate(324.627 393.078)"/><path class="d" d="M375.285,442.456h2.771l2.312,8.838h.046l2.221-8.838h2.633l2.13,8.838h.045l2.4-8.838H392.5l-3.71,11.838h-2.679l-2.2-8.792h-.046l-2.175,8.792h-2.747Z" transform="translate(-41.574 -29.444)"/><rect class="b" width="32.969" height="43.959" rx="10" transform="translate(364.186 394.529)"/><rect class="c" width="32.969" height="43.959" rx="10" transform="translate(363.217 393.078)"/><path class="d" d="M439.144,448.869a4.527,4.527,0,0,0,.195,1.328,3.279,3.279,0,0,0,.583,1.122,2.8,2.8,0,0,0,.985.767,3.236,3.236,0,0,0,1.42.287,3.138,3.138,0,0,0,1.843-.492,2.91,2.91,0,0,0,1.042-1.477h2.473a4.91,4.91,0,0,1-1.923,2.988,5.243,5.243,0,0,1-1.591.779,6.409,6.409,0,0,1-1.843.264,6.27,6.27,0,0,1-2.473-.458,5.1,5.1,0,0,1-1.82-1.282,5.438,5.438,0,0,1-1.122-1.969,7.988,7.988,0,0,1-.378-2.519,7.12,7.12,0,0,1,.4-2.393,6.121,6.121,0,0,1,1.145-1.992,5.368,5.368,0,0,1,4.179-1.866,5.31,5.31,0,0,1,2.507.583,5.5,5.5,0,0,1,1.843,1.546,6.241,6.241,0,0,1,1.065,2.21,6.788,6.788,0,0,1,.172,2.576Zm6.091-1.718a4.245,4.245,0,0,0-.263-1.191,3.188,3.188,0,0,0-.6-1,2.964,2.964,0,0,0-.916-.687,2.7,2.7,0,0,0-1.2-.264,3.134,3.134,0,0,0-1.248.241,2.848,2.848,0,0,0-.962.664,3.284,3.284,0,0,0-.641,1,3.474,3.474,0,0,0-.263,1.236Z" transform="translate(-63.729 -29.262)"/><rect class="b" width="32.969" height="43.959" rx="10" transform="translate(402.775 394.529)"/><rect class="c" width="32.969" height="43.959" rx="10" transform="translate(401.807 393.078)"/><path class="d" d="M497.889,442.274h2.45v2.29h.046a2.639,2.639,0,0,1,.447-.939,4.339,4.339,0,0,1,.8-.836,4.05,4.05,0,0,1,1.041-.607,3.134,3.134,0,0,1,1.168-.229,5.652,5.652,0,0,1,.629.023l.355.046v2.519c-.183-.031-.37-.057-.56-.081a4.705,4.705,0,0,0-.561-.034,3,3,0,0,0-1.248.264,2.855,2.855,0,0,0-1.019.778,3.809,3.809,0,0,0-.687,1.271,5.486,5.486,0,0,0-.252,1.74v5.633h-2.61Z" transform="translate(-85.922 -29.262)"/><rect class="b" width="32.969" height="43.959" rx="10" transform="translate(441.365 394.529)"/><rect class="c" width="32.969" height="43.959" rx="10" transform="translate(440.398 393.078)"/><path class="d" d="M556.483,440.445h1.969V436.9h2.611v3.549h2.358v1.946h-2.358v6.32a6.278,6.278,0,0,0,.034.71,1.23,1.23,0,0,0,.16.5.767.767,0,0,0,.378.31,1.87,1.87,0,0,0,.687.1c.183,0,.366,0,.55-.011a2.764,2.764,0,0,0,.549-.08v2.014l-.847.092a7.8,7.8,0,0,1-.847.046,5.783,5.783,0,0,1-1.66-.195,2.213,2.213,0,0,1-.985-.573,1.972,1.972,0,0,1-.481-.95,7.124,7.124,0,0,1-.149-1.305v-6.983h-1.969Z" transform="translate(-107.116 -27.433)"/><rect class="b" width="32.969" height="43.959" rx="10" transform="translate(479.955 394.529)"/><rect class="c" width="32.969" height="43.959" rx="10" transform="translate(478.988 393.078)"/><path class="d" d="M616.763,442.456h2.862l3.091,8.838h.046l3-8.838h2.725l-4.6,12.479q-.322.8-.63,1.534a5.507,5.507,0,0,1-.756,1.294,3.261,3.261,0,0,1-1.111.893,3.791,3.791,0,0,1-1.694.332,11.831,11.831,0,0,1-1.809-.137v-2.2c.214.031.419.065.618.1a3.306,3.306,0,0,0,.618.057,2.14,2.14,0,0,0,.756-.114,1.261,1.261,0,0,0,.492-.332,2.078,2.078,0,0,0,.332-.515,5.192,5.192,0,0,0,.252-.687l.3-.916Z" transform="translate(-128.92 -29.444)"/><rect class="b" width="32.969" height="43.959" rx="10" transform="translate(518.545 394.529)"/><rect class="c" width="32.969" height="43.959" rx="10" transform="translate(517.578 393.078)"/><path class="d" d="M689.662,454.294H687.1v-1.649h-.045a3.581,3.581,0,0,1-1.431,1.431,3.889,3.889,0,0,1-1.935.539,4.345,4.345,0,0,1-3.377-1.157,5.077,5.077,0,0,1-1.042-3.492v-7.51h2.61v7.259a3.208,3.208,0,0,0,.6,2.2,2.167,2.167,0,0,0,1.672.642,3.287,3.287,0,0,0,1.373-.252,2.414,2.414,0,0,0,.893-.675,2.58,2.58,0,0,0,.492-1.019,5.262,5.262,0,0,0,.149-1.282v-6.869h2.61Z" transform="translate(-151.528 -29.444)"/><rect class="b" width="32.969" height="43.959" rx="10" transform="translate(557.135 394.529)"/><rect class="c" width="32.969" height="43.959" rx="10" transform="translate(556.168 393.078)"/><path class="d" d="M747.415,435.389h2.61v2.473h-2.61Zm0,4.511h2.61v11.838h-2.61Z" transform="translate(-176.179 -26.888)"/><rect class="b" width="32.969" height="43.959" rx="10" transform="translate(595.727 394.529)"/><rect class="c" width="32.969" height="43.959" rx="10" transform="translate(594.758 393.078)"/><path class="d" d="M805.3,454.433a6.447,6.447,0,0,1-2.53-.47,5.392,5.392,0,0,1-1.878-1.294,5.54,5.54,0,0,1-1.168-1.969,8.042,8.042,0,0,1,0-5.014,5.54,5.54,0,0,1,1.168-1.969,5.392,5.392,0,0,1,1.878-1.294,7.056,7.056,0,0,1,5.06,0,5.394,5.394,0,0,1,1.878,1.294,5.54,5.54,0,0,1,1.168,1.969,8.043,8.043,0,0,1,0,5.014,5.54,5.54,0,0,1-1.168,1.969,5.394,5.394,0,0,1-1.878,1.294A6.449,6.449,0,0,1,805.3,454.433Zm0-2.061a2.993,2.993,0,0,0,1.511-.366,3.174,3.174,0,0,0,1.053-.962,4.2,4.2,0,0,0,.607-1.339,6.008,6.008,0,0,0,0-3.034,4.055,4.055,0,0,0-.607-1.339,3.237,3.237,0,0,0-1.053-.95,3.3,3.3,0,0,0-3.022,0,3.237,3.237,0,0,0-1.053.95,4.051,4.051,0,0,0-.607,1.339,6.008,6.008,0,0,0,0,3.034,4.192,4.192,0,0,0,.607,1.339,3.173,3.173,0,0,0,1.053.962A2.99,2.99,0,0,0,805.3,452.372Z" transform="translate(-194.955 -29.262)"/><rect class="b" width="32.969" height="43.959" rx="10" transform="translate(634.316 394.529)"/><rect class="c" width="32.969" height="43.959" rx="10" transform="translate(633.348 393.078)"/><path class="d" d="M860.752,442.274h2.473v1.6h.046A3.228,3.228,0,0,1,864.8,442.4a5.1,5.1,0,0,1,2.129-.446,5.654,5.654,0,0,1,2.439.492A4.815,4.815,0,0,1,871.1,443.8a5.872,5.872,0,0,1,1.031,2,8.5,8.5,0,0,1,.343,2.45,8.636,8.636,0,0,1-.31,2.312,6,6,0,0,1-.938,1.981,4.577,4.577,0,0,1-3.858,1.889,6.433,6.433,0,0,1-1.145-.1,4.924,4.924,0,0,1-1.1-.332,4.31,4.31,0,0,1-.973-.584,3.237,3.237,0,0,1-.744-.836h-.045v5.907h-2.611Zm9.113,5.93a5.89,5.89,0,0,0-.206-1.557,4.232,4.232,0,0,0-.618-1.34,3.2,3.2,0,0,0-1.03-.939,2.806,2.806,0,0,0-1.42-.355,2.879,2.879,0,0,0-2.485,1.145,5.052,5.052,0,0,0-.836,3.045,6.068,6.068,0,0,0,.218,1.66,3.734,3.734,0,0,0,.652,1.317,3.26,3.26,0,0,0,1.042.87,2.968,2.968,0,0,0,1.408.32,2.919,2.919,0,0,0,1.511-.366,3.2,3.2,0,0,0,1.019-.95,3.857,3.857,0,0,0,.572-1.328A6.73,6.73,0,0,0,869.865,448.2Z" transform="translate(-217.175 -29.262)"/><rect class="b" width="32.969" height="43.959" rx="10" transform="translate(308.627 451.954)"/><rect class="c" width="32.969" height="43.959" rx="10" transform="translate(307.658 450.503)"/><path class="d" d="M359.937,541.447a1.381,1.381,0,0,0,.126.687.53.53,0,0,0,.492.206h.274a1.7,1.7,0,0,0,.366-.046V544.1c-.092.031-.21.064-.355.1s-.294.073-.447.1-.305.053-.458.068-.283.023-.389.023a2.515,2.515,0,0,1-1.328-.32,1.6,1.6,0,0,1-.687-1.122,4.619,4.619,0,0,1-1.911,1.1,7.527,7.527,0,0,1-2.187.343,5.366,5.366,0,0,1-1.534-.218,4,4,0,0,1-1.294-.641,3.062,3.062,0,0,1-.893-1.076,3.313,3.313,0,0,1-.332-1.523,3.514,3.514,0,0,1,.4-1.786,2.972,2.972,0,0,1,1.053-1.076,4.784,4.784,0,0,1,1.466-.561q.812-.171,1.637-.263a13.346,13.346,0,0,1,1.351-.195,6.264,6.264,0,0,0,1.133-.195,1.736,1.736,0,0,0,.779-.423,1.17,1.17,0,0,0,.286-.859,1.337,1.337,0,0,0-.241-.824,1.619,1.619,0,0,0-.595-.493,2.59,2.59,0,0,0-.79-.229,6.438,6.438,0,0,0-.824-.057,3.273,3.273,0,0,0-1.809.458,1.783,1.783,0,0,0-.8,1.419h-2.611a3.933,3.933,0,0,1,.55-1.9,3.8,3.8,0,0,1,1.225-1.213,5.026,5.026,0,0,1,1.683-.641,10.035,10.035,0,0,1,1.923-.183,8.117,8.117,0,0,1,1.718.183,4.888,4.888,0,0,1,1.522.6,3.307,3.307,0,0,1,1.088,1.065,2.925,2.925,0,0,1,.412,1.591Zm-2.611-3.3a3.156,3.156,0,0,1-1.465.469q-.87.08-1.74.241a5.659,5.659,0,0,0-.8.195,2.423,2.423,0,0,0-.687.343,1.508,1.508,0,0,0-.469.573,1.952,1.952,0,0,0-.172.858,1.1,1.1,0,0,0,.252.733,1.83,1.83,0,0,0,.606.47,2.822,2.822,0,0,0,.779.24,4.82,4.82,0,0,0,.767.069,4.242,4.242,0,0,0,.939-.115,3.133,3.133,0,0,0,.95-.389,2.5,2.5,0,0,0,.744-.7,1.764,1.764,0,0,0,.3-1.042Z" transform="translate(-32.204 -61.805)"/><rect class="b" width="32.969" height="43.959" rx="10" transform="translate(347.217 451.954)"/><rect class="c" width="32.969" height="43.959" rx="10" transform="translate(346.248 450.503)"/><path class="d" d="M414.725,540.279a1.967,1.967,0,0,0,.871,1.6,3.419,3.419,0,0,0,1.809.458,6.965,6.965,0,0,0,.836-.057,3.6,3.6,0,0,0,.881-.218,1.651,1.651,0,0,0,.675-.469,1.127,1.127,0,0,0,.241-.813,1.154,1.154,0,0,0-.366-.824,2.535,2.535,0,0,0-.881-.515,8.536,8.536,0,0,0-1.225-.332q-.686-.138-1.4-.3a12.932,12.932,0,0,1-1.409-.389,4.521,4.521,0,0,1-1.213-.618,2.853,2.853,0,0,1-.858-1,3.178,3.178,0,0,1-.32-1.5,2.687,2.687,0,0,1,.469-1.614,3.586,3.586,0,0,1,1.191-1.053,5.164,5.164,0,0,1,1.6-.561,9.44,9.44,0,0,1,1.683-.16,7.687,7.687,0,0,1,1.752.195,4.767,4.767,0,0,1,1.511.629,3.709,3.709,0,0,1,1.122,1.134,3.928,3.928,0,0,1,.561,1.683h-2.725a1.628,1.628,0,0,0-.859-1.259,3.574,3.574,0,0,0-1.546-.32,5.513,5.513,0,0,0-.652.046,3.031,3.031,0,0,0-.71.172,1.483,1.483,0,0,0-.561.366.875.875,0,0,0-.229.629,1,1,0,0,0,.332.779,2.622,2.622,0,0,0,.87.492,8.529,8.529,0,0,0,1.226.333q.686.137,1.42.3.709.16,1.4.389a4.5,4.5,0,0,1,1.225.618,3,3,0,0,1,.87.985,2.97,2.97,0,0,1,.333,1.465,3.18,3.18,0,0,1-.481,1.786,3.8,3.8,0,0,1-1.248,1.19,5.677,5.677,0,0,1-1.706.664,8.647,8.647,0,0,1-1.855.206,8.073,8.073,0,0,1-2.072-.251,4.826,4.826,0,0,1-1.649-.767,3.692,3.692,0,0,1-1.1-1.282,4.068,4.068,0,0,1-.424-1.82Z" transform="translate(-54.896 -61.805)"/><rect class="b" width="32.969" height="43.959" rx="10" transform="translate(385.807 451.954)"/><rect class="c" width="32.969" height="43.959" rx="10" transform="translate(384.838 450.503)"/><path class="d" d="M482.131,541.705h-2.473v-1.6h-.045a3.107,3.107,0,0,1-1.534,1.477,5.2,5.2,0,0,1-2.129.446,5.65,5.65,0,0,1-2.438-.492,4.845,4.845,0,0,1-1.729-1.34,5.712,5.712,0,0,1-1.03-2,8.673,8.673,0,0,1-.344-2.484,7.942,7.942,0,0,1,.435-2.77A5.543,5.543,0,0,1,472,531.012a4.463,4.463,0,0,1,1.648-1.11,5.239,5.239,0,0,1,1.889-.355,6.313,6.313,0,0,1,1.122.1,4.976,4.976,0,0,1,1.1.332,4.338,4.338,0,0,1,.973.584,3.246,3.246,0,0,1,.744.836h.046v-6.045h2.611Zm-9.113-5.793a5.782,5.782,0,0,0,.195,1.489,4.089,4.089,0,0,0,.595,1.305,3.017,3.017,0,0,0,1.019.916,2.975,2.975,0,0,0,1.466.343,2.932,2.932,0,0,0,1.5-.366,3.111,3.111,0,0,0,1.03-.962,4.347,4.347,0,0,0,.595-1.339,6,6,0,0,0,.2-1.523,4.787,4.787,0,0,0-.882-3.068,2.9,2.9,0,0,0-2.392-1.1,2.949,2.949,0,0,0-1.546.378,3.172,3.172,0,0,0-1.03.985,4.072,4.072,0,0,0-.573,1.374A7.169,7.169,0,0,0,473.018,535.912Z" transform="translate(-75.98 -59.43)"/><rect class="b" width="32.969" height="43.959" rx="10" transform="translate(424.396 451.954)"/><rect class="c" width="32.969" height="43.959" rx="10" transform="translate(423.43 450.503)"/><path class="d" d="M537.515,529.868h1.947v-.985a5.069,5.069,0,0,1,.274-1.82,2.587,2.587,0,0,1,.733-1.076,2.419,2.419,0,0,1,1.042-.5,5.823,5.823,0,0,1,1.225-.126,7.489,7.489,0,0,1,1.831.16v2.038a3.717,3.717,0,0,0-.537-.1,5.753,5.753,0,0,0-.676-.034,1.593,1.593,0,0,0-.9.252,1.1,1.1,0,0,0-.377.984v1.214h2.221v1.946h-2.221v9.892h-2.611v-9.892h-1.947Z" transform="translate(-100.255 -59.43)"/><rect class="b" width="32.969" height="43.959" rx="10" transform="translate(462.986 451.954)"/><rect class="c" width="32.969" height="43.959" rx="10" transform="translate(462.02 450.503)"/><path class="d" d="M602.843,543.461a5.042,5.042,0,0,1-1.5,4,6.348,6.348,0,0,1-4.317,1.317,9.053,9.053,0,0,1-1.8-.183,5.361,5.361,0,0,1-1.648-.618,3.968,3.968,0,0,1-1.248-1.145,3.472,3.472,0,0,1-.6-1.741h2.61a2.094,2.094,0,0,0,.389.894,2.015,2.015,0,0,0,.653.538,2.5,2.5,0,0,0,.835.251,7.846,7.846,0,0,0,.961.057,3.046,3.046,0,0,0,2.313-.779,3.154,3.154,0,0,0,.733-2.244V542h-.046a3.973,3.973,0,0,1-1.5,1.534,4.024,4.024,0,0,1-2.05.55,5.409,5.409,0,0,1-2.415-.492,4.6,4.6,0,0,1-1.649-1.351,5.607,5.607,0,0,1-.95-1.981,9.339,9.339,0,0,1-.3-2.4,6.982,6.982,0,0,1,.366-2.267,5.786,5.786,0,0,1,1.053-1.889,5.044,5.044,0,0,1,1.683-1.294,5.124,5.124,0,0,1,2.255-.481,4.546,4.546,0,0,1,2.061.469,3.187,3.187,0,0,1,1.443,1.477h.046v-1.626h2.61Zm-5.792-1.442a2.773,2.773,0,0,0,2.461-1.293,4.123,4.123,0,0,0,.549-1.328,6.625,6.625,0,0,0,.172-1.5,5.855,5.855,0,0,0-.183-1.466,3.966,3.966,0,0,0-.561-1.259,2.723,2.723,0,0,0-.984-.87,3.086,3.086,0,0,0-1.454-.32,2.748,2.748,0,0,0-1.466.366,2.926,2.926,0,0,0-.962.95,4.09,4.09,0,0,0-.527,1.328,6.982,6.982,0,0,0-.16,1.477,5.62,5.62,0,0,0,.183,1.431,3.95,3.95,0,0,0,.562,1.248,2.98,2.98,0,0,0,.961.893A2.732,2.732,0,0,0,597.051,542.019Z" transform="translate(-119.719 -61.805)"/><rect class="b" width="32.969" height="43.959" rx="10" transform="translate(501.576 451.954)"/><rect class="c" width="32.969" height="43.959" rx="10" transform="translate(500.609 450.503)"/><path class="d" d="M652.682,525.357h2.61v6.068h.046a3.809,3.809,0,0,1,1.431-1.34,4.231,4.231,0,0,1,2.118-.537,4.428,4.428,0,0,1,3.068,1.007,3.858,3.858,0,0,1,1.121,3.022v8.129h-2.61v-7.442a3.215,3.215,0,0,0-.6-2.026,2.162,2.162,0,0,0-1.717-.63,2.838,2.838,0,0,0-1.191.241,2.582,2.582,0,0,0-.893.664,3.148,3.148,0,0,0-.573,1,3.567,3.567,0,0,0-.206,1.214v6.983h-2.61Z" transform="translate(-141.912 -59.43)"/><rect class="b" width="32.969" height="43.959" rx="10" transform="translate(540.168 451.954)"/><rect class="c" width="32.969" height="43.959" rx="10" transform="translate(539.199 450.503)"/><path class="d" d="M719.727,529.868h2.61v12.845a4.228,4.228,0,0,1-.779,2.725,3.173,3.173,0,0,1-2.61.962q-.39,0-.653-.023t-.515-.068v-2.061q.253.046.481.069c.152.015.29.023.412.023q.709,0,.881-.435a3.742,3.742,0,0,0,.172-1.305Zm0-4.511h2.61v2.473h-2.61Z" transform="translate(-165.46 -59.43)"/><rect class="b" width="32.969" height="43.959" rx="10" transform="translate(578.758 451.954)"/><rect class="c" width="32.969" height="43.959" rx="10" transform="translate(577.789 450.503)"/><path class="d" d="M773.709,525.357h2.61v9.3l4.716-4.785h3.206l-4.534,4.35,4.969,7.488h-3.183l-3.618-5.747-1.557,1.511v4.236h-2.61Z" transform="translate(-185.689 -59.43)"/><rect class="b" width="32.969" height="43.959" rx="10" transform="translate(617.348 451.954)"/><rect class="c" width="32.969" height="43.959" rx="10" transform="translate(616.379 450.503)"/><path class="d" d="M839.474,525.357h2.61v16.348h-2.61Z" transform="translate(-209.479 -59.43)"/><rect class="b" width="32.969" height="43.959" rx="10" transform="translate(342.563 509.379)"/><rect class="c" width="32.969" height="43.959" rx="10" transform="translate(341.596 507.928)"/><path class="d" d="M402.65,622.392h9.617v1.832l-6.777,7.945h7.121v2.06H402.192V632.4l6.549-7.945H402.65Z" transform="translate(-51.307 -94.53)"/><rect class="b" width="32.969" height="43.959" rx="10" transform="translate(381.154 509.379)"/><rect class="c" width="32.969" height="43.959" rx="10" transform="translate(380.186 507.928)"/><path class="d" d="M466.471,628l-4.1-5.61h3.16l2.473,3.641,2.587-3.641h3.022l-4.029,5.472,4.533,6.366h-3.136l-3-4.374-2.908,4.374h-3.068Z" transform="translate(-72.942 -94.53)"/><rect class="b" width="32.969" height="43.959" rx="10" transform="translate(419.744 509.379)"/><rect class="c" width="32.969" height="43.959" rx="10" transform="translate(418.775 507.928)"/><path class="d" d="M533.657,626.172a2.451,2.451,0,0,0-.881-1.66,2.878,2.878,0,0,0-1.821-.561,3.75,3.75,0,0,0-1.076.172,2.559,2.559,0,0,0-1.054.641,3.608,3.608,0,0,0-.8,1.3,6.2,6.2,0,0,0-.32,2.187,6.412,6.412,0,0,0,.172,1.466,3.987,3.987,0,0,0,.549,1.305,2.974,2.974,0,0,0,.973.927,2.769,2.769,0,0,0,1.443.355,2.628,2.628,0,0,0,1.889-.71,3.3,3.3,0,0,0,.927-1.992h2.61a5.729,5.729,0,0,1-1.751,3.537,5.343,5.343,0,0,1-3.675,1.225,6.052,6.052,0,0,1-2.461-.47,5.213,5.213,0,0,1-1.8-1.282,5.426,5.426,0,0,1-1.111-1.935,7.554,7.554,0,0,1-.378-2.427,8.288,8.288,0,0,1,.366-2.5,5.728,5.728,0,0,1,1.1-2.027,5.144,5.144,0,0,1,1.82-1.351,6.145,6.145,0,0,1,2.553-.492,7.133,7.133,0,0,1,1.958.263,5.156,5.156,0,0,1,1.649.79,4.213,4.213,0,0,1,1.179,1.328,4.543,4.543,0,0,1,.55,1.9Z" transform="translate(-95.762 -94.348)"/><rect class="b" width="32.969" height="43.959" rx="10" transform="translate(458.334 509.379)"/><rect class="c" width="32.969" height="43.959" rx="10" transform="translate(457.365 507.928)"/><path class="d" d="M583.1,622.392h2.84l3,9.09h.046l2.884-9.09h2.7l-4.236,11.838h-2.93Z" transform="translate(-116.745 -94.53)"/><rect class="b" width="32.969" height="43.959" rx="10" transform="translate(496.924 509.379)"/><rect class="c" width="32.969" height="43.959" rx="10" transform="translate(495.957 507.928)"/><path class="d" d="M645.5,615.325h2.61v6.044h.045a3.6,3.6,0,0,1,.664-.778,4.155,4.155,0,0,1,.859-.584,4.5,4.5,0,0,1,.985-.366,4.291,4.291,0,0,1,1.019-.126,5.659,5.659,0,0,1,2.439.492,4.819,4.819,0,0,1,1.728,1.351,5.892,5.892,0,0,1,1.031,2,8.506,8.506,0,0,1,.343,2.45,8.667,8.667,0,0,1-.31,2.313,6.026,6.026,0,0,1-.938,1.981,4.579,4.579,0,0,1-3.858,1.889,9.237,9.237,0,0,1-1.2-.08,4.544,4.544,0,0,1-1.156-.31,3.933,3.933,0,0,1-1-.595,2.885,2.885,0,0,1-.744-.962h-.046v1.626H645.5Zm9.113,10.441a5.9,5.9,0,0,0-.206-1.557,4.218,4.218,0,0,0-.618-1.339,3.186,3.186,0,0,0-1.03-.939,2.8,2.8,0,0,0-1.42-.355,2.877,2.877,0,0,0-2.484,1.145,5.052,5.052,0,0,0-.836,3.045,6.068,6.068,0,0,0,.217,1.66,3.745,3.745,0,0,0,.653,1.317,3.256,3.256,0,0,0,1.042.87,2.967,2.967,0,0,0,1.408.32,2.917,2.917,0,0,0,1.512-.366,3.2,3.2,0,0,0,1.019-.95,3.866,3.866,0,0,0,.573-1.328A6.73,6.73,0,0,0,654.613,625.766Z" transform="translate(-139.314 -91.973)"/><rect class="b" width="32.969" height="43.959" rx="10" transform="translate(535.514 509.379)"/><rect class="c" width="32.969" height="43.959" rx="10" transform="translate(534.547 507.928)"/><path class="d" d="M708.126,622.21H710.6v1.74l.046.046a4.387,4.387,0,0,1,1.557-1.546,4.157,4.157,0,0,1,2.13-.56A4.428,4.428,0,0,1,717.4,622.9a3.859,3.859,0,0,1,1.121,3.022v8.129h-2.61v-7.442a3.217,3.217,0,0,0-.6-2.026,2.163,2.163,0,0,0-1.718-.63,2.837,2.837,0,0,0-1.19.241,2.581,2.581,0,0,0-.893.664,3.131,3.131,0,0,0-.572,1,3.558,3.558,0,0,0-.206,1.213v6.984h-2.61Z" transform="translate(-161.968 -94.348)"/><rect class="b" width="32.969" height="43.959" rx="10" transform="translate(574.104 509.379)"/><rect class="c" width="32.969" height="43.959" rx="10" transform="translate(573.137 507.928)"/><rect class="b" width="43.646" height="43.959" rx="10" transform="translate(623.639 509.379)"/><rect class="e" width="43.646" height="43.959" rx="10" transform="translate(622.357 507.928)"/><rect class="b" width="43.646" height="43.959" rx="10" transform="translate(286.477 509.379)"/><rect class="e" width="43.646" height="43.959" rx="10" transform="translate(285.195 507.928)"/><rect class="b" width="86.822" height="43.959" rx="10" transform="translate(287.742 563.242)"/><rect class="e" width="86.822" height="43.959" rx="10" transform="translate(285.195 561.79)"/><rect class="b" width="86.822" height="43.959" rx="10" transform="translate(583.029 563.242)"/><rect class="f" width="86.822" height="43.959" rx="10" transform="translate(580.48 561.79)"/><rect class="b" width="190.294" height="43.959" rx="10" transform="translate(384.592 563.242)"/><rect class="c" width="190.294" height="43.959" rx="10" transform="translate(382.877 561.79)"/><path class="d" d="M761.762,622.21h2.473v1.649h.069a6.666,6.666,0,0,1,.641-.8,3.485,3.485,0,0,1,.767-.618,3.892,3.892,0,0,1,.973-.4,4.808,4.808,0,0,1,1.259-.149,4.294,4.294,0,0,1,2,.481,2.722,2.722,0,0,1,1.316,1.489,5.278,5.278,0,0,1,1.534-1.443,4.134,4.134,0,0,1,2.175-.527,4.281,4.281,0,0,1,2.919.915,3.912,3.912,0,0,1,1.041,3.068v8.174h-2.61v-6.915q0-.71-.045-1.293a2.651,2.651,0,0,0-.264-1.008,1.5,1.5,0,0,0-.652-.652,2.582,2.582,0,0,0-1.191-.229,2.21,2.21,0,0,0-1.923.825,3.933,3.933,0,0,0-.6,2.336v6.938h-2.61v-7.6a3.223,3.223,0,0,0-.447-1.866,1.878,1.878,0,0,0-1.637-.63,2.43,2.43,0,0,0-1.8.8,2.982,2.982,0,0,0-.572.961,3.662,3.662,0,0,0-.218,1.305v7.029h-2.61Z" transform="translate(-181.368 -94.348)"/><path class="d" d="M565.242,708.7a1.583,1.583,0,0,0,.7,1.294,2.76,2.76,0,0,0,1.46.37,5.562,5.562,0,0,0,.675-.047,2.914,2.914,0,0,0,.712-.176,1.337,1.337,0,0,0,.545-.379.911.911,0,0,0,.194-.656.934.934,0,0,0-.3-.665,2.071,2.071,0,0,0-.712-.416,7.032,7.032,0,0,0-.989-.268q-.554-.11-1.127-.24a10.66,10.66,0,0,1-1.137-.314,3.641,3.641,0,0,1-.98-.5,2.3,2.3,0,0,1-.693-.8,2.564,2.564,0,0,1-.259-1.211,2.173,2.173,0,0,1,.379-1.3,2.9,2.9,0,0,1,.961-.85,4.182,4.182,0,0,1,1.294-.453,7.661,7.661,0,0,1,1.359-.13,6.221,6.221,0,0,1,1.414.158,3.856,3.856,0,0,1,1.22.508,2.994,2.994,0,0,1,.906.915,3.174,3.174,0,0,1,.453,1.358h-2.2a1.313,1.313,0,0,0-.693-1.016,2.872,2.872,0,0,0-1.248-.259,4.385,4.385,0,0,0-.527.037,2.441,2.441,0,0,0-.573.138,1.2,1.2,0,0,0-.453.3.7.7,0,0,0-.185.508.8.8,0,0,0,.268.629,2.107,2.107,0,0,0,.7.4,6.835,6.835,0,0,0,.989.268q.554.111,1.146.241.574.129,1.128.314a3.652,3.652,0,0,1,.989.5,2.442,2.442,0,0,1,.7.795,2.4,2.4,0,0,1,.267,1.183,2.573,2.573,0,0,1-.387,1.442,3.07,3.07,0,0,1-1.008.961,4.591,4.591,0,0,1-1.377.536,7,7,0,0,1-1.5.166,6.531,6.531,0,0,1-1.673-.2,3.91,3.91,0,0,1-1.331-.619,2.994,2.994,0,0,1-.887-1.035,3.292,3.292,0,0,1-.341-1.47Z" transform="translate(-109.521 -123.307)"/><path class="d" d="M579.062,702.208h2V703.5h.037a2.61,2.61,0,0,1,1.239-1.192,4.117,4.117,0,0,1,1.719-.361,4.567,4.567,0,0,1,1.969.4,3.888,3.888,0,0,1,1.4,1.091,4.735,4.735,0,0,1,.832,1.617,6.844,6.844,0,0,1,.278,1.978,7.01,7.01,0,0,1-.25,1.867,4.861,4.861,0,0,1-.758,1.6,3.692,3.692,0,0,1-3.114,1.525,5.205,5.205,0,0,1-.924-.083,4,4,0,0,1-.888-.268,3.488,3.488,0,0,1-.785-.471,2.61,2.61,0,0,1-.6-.675h-.037V715.3h-2.108ZM586.42,707a4.774,4.774,0,0,0-.167-1.257,3.422,3.422,0,0,0-.5-1.082,2.569,2.569,0,0,0-.832-.758,2.261,2.261,0,0,0-1.146-.287,2.325,2.325,0,0,0-2.006.924A4.082,4.082,0,0,0,581.1,707a4.883,4.883,0,0,0,.176,1.34,3.01,3.01,0,0,0,.527,1.063,2.623,2.623,0,0,0,.841.7,2.39,2.39,0,0,0,1.137.259,2.354,2.354,0,0,0,1.22-.3,2.566,2.566,0,0,0,.823-.767,3.109,3.109,0,0,0,.462-1.072A5.444,5.444,0,0,0,586.42,707Z" transform="translate(-115.283 -123.307)"/><path class="d" d="M604.382,709.639a1.12,1.12,0,0,0,.1.555.429.429,0,0,0,.4.167h.221a1.37,1.37,0,0,0,.3-.037v1.46c-.074.024-.17.052-.287.083s-.237.058-.361.083a3.673,3.673,0,0,1-.369.056c-.124.012-.228.019-.315.019a2.034,2.034,0,0,1-1.072-.259,1.287,1.287,0,0,1-.554-.906,3.735,3.735,0,0,1-1.543.887,6.094,6.094,0,0,1-1.765.277,4.336,4.336,0,0,1-1.238-.175,3.22,3.22,0,0,1-1.044-.518,2.475,2.475,0,0,1-.721-.869,2.676,2.676,0,0,1-.268-1.229,2.843,2.843,0,0,1,.323-1.442,2.4,2.4,0,0,1,.851-.869,3.845,3.845,0,0,1,1.183-.453q.657-.138,1.322-.213a10.878,10.878,0,0,1,1.091-.157,5.109,5.109,0,0,0,.915-.157,1.4,1.4,0,0,0,.628-.342.939.939,0,0,0,.231-.693,1.078,1.078,0,0,0-.194-.665,1.31,1.31,0,0,0-.481-.4,2.091,2.091,0,0,0-.638-.185,5.258,5.258,0,0,0-.666-.046,2.644,2.644,0,0,0-1.46.37,1.44,1.44,0,0,0-.647,1.146h-2.108a3.176,3.176,0,0,1,.444-1.534,3.073,3.073,0,0,1,.989-.98A4.048,4.048,0,0,1,599,702.1a8.116,8.116,0,0,1,1.553-.148,6.559,6.559,0,0,1,1.386.148,3.96,3.96,0,0,1,1.229.481,2.664,2.664,0,0,1,.878.86,2.356,2.356,0,0,1,.333,1.285Zm-2.108-2.662a2.563,2.563,0,0,1-1.183.379q-.7.065-1.4.194a4.435,4.435,0,0,0-.647.157,1.937,1.937,0,0,0-.554.277,1.21,1.21,0,0,0-.379.462,1.58,1.58,0,0,0-.139.693.882.882,0,0,0,.2.592,1.479,1.479,0,0,0,.49.379,2.26,2.26,0,0,0,.629.194,3.9,3.9,0,0,0,.619.055,3.413,3.413,0,0,0,.758-.093,2.546,2.546,0,0,0,.767-.314,2.023,2.023,0,0,0,.6-.564,1.425,1.425,0,0,0,.24-.841Z" transform="translate(-121.359 -123.307)"/><path class="d" d="M618.962,705.406a1.977,1.977,0,0,0-.712-1.34,2.324,2.324,0,0,0-1.469-.453,3.025,3.025,0,0,0-.869.138,2.072,2.072,0,0,0-.851.518,2.9,2.9,0,0,0-.647,1.054,5.025,5.025,0,0,0-.258,1.766,5.152,5.152,0,0,0,.138,1.183,3.241,3.241,0,0,0,.444,1.054,2.394,2.394,0,0,0,.785.749,2.232,2.232,0,0,0,1.165.286,2.117,2.117,0,0,0,1.525-.573,2.662,2.662,0,0,0,.749-1.608h2.108a4.63,4.63,0,0,1-1.414,2.856,4.315,4.315,0,0,1-2.967.989,4.882,4.882,0,0,1-1.987-.379,4.2,4.2,0,0,1-1.451-1.035,4.39,4.39,0,0,1-.9-1.562,6.09,6.09,0,0,1-.305-1.959,6.715,6.715,0,0,1,.3-2.015,4.613,4.613,0,0,1,.888-1.636,4.154,4.154,0,0,1,1.469-1.091,4.96,4.96,0,0,1,2.061-.4,5.758,5.758,0,0,1,1.58.213,4.164,4.164,0,0,1,1.331.638,3.4,3.4,0,0,1,.952,1.072,3.676,3.676,0,0,1,.444,1.534Z" transform="translate(-127.215 -123.307)"/><path class="d" d="M630.259,707.532a3.677,3.677,0,0,0,.157,1.072,2.641,2.641,0,0,0,.472.906,2.27,2.27,0,0,0,.795.619,2.625,2.625,0,0,0,1.146.231,2.535,2.535,0,0,0,1.489-.4,2.353,2.353,0,0,0,.841-1.193h2a3.972,3.972,0,0,1-1.553,2.413,4.222,4.222,0,0,1-1.285.628,5.177,5.177,0,0,1-1.489.213,5.058,5.058,0,0,1-2-.37,4.128,4.128,0,0,1-1.47-1.035,4.389,4.389,0,0,1-.905-1.589,6.452,6.452,0,0,1-.306-2.033,5.753,5.753,0,0,1,.324-1.932,4.946,4.946,0,0,1,.925-1.608,4.336,4.336,0,0,1,3.373-1.507,4.289,4.289,0,0,1,2.024.472,4.442,4.442,0,0,1,1.488,1.248,5.052,5.052,0,0,1,.86,1.784,5.469,5.469,0,0,1,.138,2.08Zm4.917-1.386a3.37,3.37,0,0,0-.213-.961,2.547,2.547,0,0,0-.481-.8,2.374,2.374,0,0,0-.739-.555,2.177,2.177,0,0,0-.97-.213,2.533,2.533,0,0,0-1.008.194,2.31,2.31,0,0,0-.776.536,2.656,2.656,0,0,0-.518.8,2.812,2.812,0,0,0-.212,1Z" transform="translate(-133.039 -123.307)"/><path class="d" d="M334.973,701.058a9.179,9.179,0,0,0,1.6-.138,4.988,4.988,0,0,0,1.408-.458,3.6,3.6,0,0,0,1.076-.825,2.511,2.511,0,0,0,.584-1.236h2.129V714.43h-2.862V703.118h-3.938Z" transform="translate(-26.992 -122.023)"/><path class="d" d="M365.361,714.248H354.416a6.529,6.529,0,0,1,.962-3.481,8.8,8.8,0,0,1,2.565-2.588q.778-.571,1.626-1.111a12.915,12.915,0,0,0,1.557-1.156,6.155,6.155,0,0,0,1.167-1.34,3.173,3.173,0,0,0,.481-1.66,4.56,4.56,0,0,0-.1-.927,2.474,2.474,0,0,0-.4-.917,2.372,2.372,0,0,0-.825-.709,2.867,2.867,0,0,0-1.374-.287,2.484,2.484,0,0,0-1.294.309,2.308,2.308,0,0,0-.824.848,4.227,4.227,0,0,0-.458,1.271,9.1,9.1,0,0,0-.172,1.58h-2.61a8.188,8.188,0,0,1,.355-2.461,5.447,5.447,0,0,1,1.065-1.958,5.021,5.021,0,0,1,1.729-1.293,5.615,5.615,0,0,1,2.37-.47,5.554,5.554,0,0,1,2.45.481,4.724,4.724,0,0,1,1.592,1.213,4.442,4.442,0,0,1,.858,1.591,5.82,5.82,0,0,1,.252,1.637,4.85,4.85,0,0,1-.3,1.74,5.621,5.621,0,0,1-.8,1.431,8.143,8.143,0,0,1-1.145,1.2q-.642.55-1.328,1.03t-1.374.916q-.687.435-1.271.87a7.443,7.443,0,0,0-1.019.9,2.568,2.568,0,0,0-.6,1h7.807Z" transform="translate(-34.025 -121.842)"/><path class="d" d="M378.586,704.86a6.023,6.023,0,0,0,1.282-.092,3.542,3.542,0,0,0,1.145-.4,2.241,2.241,0,0,0,.813-.79,2.327,2.327,0,0,0,.309-1.236,2.094,2.094,0,0,0-.7-1.649,2.611,2.611,0,0,0-1.8-.619,2.364,2.364,0,0,0-2.027,1.019,3.334,3.334,0,0,0-.492,1.054,3.924,3.924,0,0,0-.137,1.2h-2.611a6.594,6.594,0,0,1,.435-2.164,5.441,5.441,0,0,1,1.065-1.729,4.739,4.739,0,0,1,1.637-1.145,5.482,5.482,0,0,1,2.176-.412,6.3,6.3,0,0,1,1.843.275,5.4,5.4,0,0,1,1.626.8,3.851,3.851,0,0,1,1.591,3.206,4,4,0,0,1-.55,2.118,3.137,3.137,0,0,1-1.717,1.316v.046a3.311,3.311,0,0,1,2.141,1.363,4.888,4.888,0,0,1,.309,4.693,4.656,4.656,0,0,1-1.237,1.534,5.72,5.72,0,0,1-1.809.973,7.344,7.344,0,0,1-4.614-.057,4.669,4.669,0,0,1-1.74-1.134,4.883,4.883,0,0,1-1.065-1.763,7.17,7.17,0,0,1-.389-2.29h2.61a3.624,3.624,0,0,0,.721,2.438,2.75,2.75,0,0,0,2.3.973,3.275,3.275,0,0,0,2.187-.744,2.617,2.617,0,0,0,.882-2.118,2.655,2.655,0,0,0-.366-1.489,2.374,2.374,0,0,0-.962-.835,3.885,3.885,0,0,0-1.34-.355,12.493,12.493,0,0,0-1.522-.046Z" transform="translate(-41.136 -121.842)"/><path class="c" d="M824.581,711.515h-1.243l-.295-1.3a4.622,4.622,0,0,1-1.553,1.227,4.395,4.395,0,0,1-1.786.342,5.224,5.224,0,0,1-2.228-.458,4.894,4.894,0,0,1-1.67-1.25,5.6,5.6,0,0,1-1.048-1.849,7.078,7.078,0,0,1,0-4.488,5.6,5.6,0,0,1,1.048-1.848,4.99,4.99,0,0,1,1.67-1.258,5.159,5.159,0,0,1,2.228-.466,6.021,6.021,0,0,1,1.716.241,4.574,4.574,0,0,1,1.452.714,3.95,3.95,0,0,1,1.056,1.188,4.16,4.16,0,0,1,.529,1.646h-1.9a2.376,2.376,0,0,0-.978-1.646,2.824,2.824,0,0,0-.87-.419,3.6,3.6,0,0,0-1.01-.14,3.108,3.108,0,0,0-1.529.357,3,3,0,0,0-1.049.955,4.3,4.3,0,0,0-.6,1.359,6.29,6.29,0,0,0,0,3.106,4.3,4.3,0,0,0,.6,1.36,3,3,0,0,0,1.049.955,3.108,3.108,0,0,0,1.529.357,3.609,3.609,0,0,0,1.321-.194,2.622,2.622,0,0,0,.971-.606,2.544,2.544,0,0,0,.6-.97,4.13,4.13,0,0,0,.218-1.273H819.86v-1.476h4.721Z" transform="translate(-200.406 -122.66)"/><path class="c" d="M836.743,713.493a4.37,4.37,0,0,1-1.716-.318,3.662,3.662,0,0,1-1.273-.877,3.757,3.757,0,0,1-.792-1.336,5.463,5.463,0,0,1,0-3.4,3.761,3.761,0,0,1,.792-1.336,3.66,3.66,0,0,1,1.273-.877,4.784,4.784,0,0,1,3.433,0,3.655,3.655,0,0,1,1.273.877,3.759,3.759,0,0,1,.792,1.336,5.451,5.451,0,0,1,0,3.4,3.755,3.755,0,0,1-.792,1.336,3.657,3.657,0,0,1-1.273.877A4.368,4.368,0,0,1,836.743,713.493Zm0-1.4a2.029,2.029,0,0,0,1.025-.249,2.164,2.164,0,0,0,.715-.652,2.863,2.863,0,0,0,.411-.908,4.07,4.07,0,0,0,0-2.058,2.765,2.765,0,0,0-.411-.909,2.2,2.2,0,0,0-.715-.644,2.235,2.235,0,0,0-2.05,0,2.191,2.191,0,0,0-.715.644,2.767,2.767,0,0,0-.412.909,4.092,4.092,0,0,0,0,2.058,2.864,2.864,0,0,0,.412.908,2.151,2.151,0,0,0,.715.652A2.026,2.026,0,0,0,836.743,712.1Z" transform="translate(-207.024 -124.421)"/><rect class="d" width="17.505" height="2.744" transform="matrix(0.707, -0.707, 0.707, 0.707, 637.023, 535.127)"/><rect class="d" width="2.744" height="17.505" transform="translate(637.021 524.688) rotate(-44.999)"/><rect class="d" width="2.744" height="17.505" transform="translate(305.395 521.155)"/><path class="d" d="M334.233,617.943l-5.219-5.219-5.219,5.219-1.94-1.94,7.159-7.159L336.174,616Z" transform="translate(-22.247 -89.629)"/></g><g transform="translate(936.168 333.414)"><rect class="g" width="433.395" height="50.658" transform="translate(-43.843 365.646)"/><path class="h" d="M179.344,375.943h0a3.725,3.725,0,0,1,3.725-3.726H186.4a3.727,3.727,0,0,1,3.728,3.726h3.475a2.211,2.211,0,0,1,2.211,2.209v11.113a2.562,2.562,0,0,1-2.563,2.561H175.436a2.562,2.562,0,0,1-2.563-2.561V377.793a1.85,1.85,0,0,1,1.85-1.85Z" transform="translate(133.127 8.954)"/><rect class="h" width="3.236" height="2.721" transform="translate(307.471 382.176)"/><path class="h" d="M185.614,379.759a5,5,0,1,1-5-5A5,5,0,0,1,185.614,379.759Z" transform="translate(136.857 12.417)"/><circle class="h" cx="1.03" cy="1.03" r="1.03" transform="translate(323.207 386.955)"/><path class="i" d="M189.9,375a1.36,1.36,0,1,1-1.358-1.361A1.359,1.359,0,0,1,189.9,375Z" transform="translate(152.617 10.889)"/><path class="i" d="M189.9,377.319a1.36,1.36,0,1,1-1.358-1.361A1.359,1.359,0,0,1,189.9,377.319Z" transform="translate(152.617 14.049)"/><path class="i" d="M189.9,379.638a1.36,1.36,0,1,1-1.358-1.361A1.359,1.359,0,0,1,189.9,379.638Z" transform="translate(152.617 17.208)"/><rect class="h" width="8.732" height="14.334" rx="4" transform="translate(359.66 378.98)"/><path class="h" d="M208.105,375.481a6.739,6.739,0,0,1-6.74,6.74h0a6.741,6.741,0,0,1-6.742-6.74" transform="translate(162.758 13.399)"/><line class="h" y2="6.59" transform="translate(364.123 395.621)"/><line class="h" x2="8.732" transform="translate(359.66 402.211)"/><rect class="j" width="284.779" height="23.093" rx="1.074" transform="translate(9.021 378.828)"/><line class="k" y2="14.387" transform="translate(14.512 383.181)"/><path class="h" d="M81.084,377.265l4.706-3.922,3.53,3.922" transform="translate(-101.924 10.487)"/><line class="h" y2="12.354" transform="translate(-16.135 383.83)"/><path class="h" d="M100.7,382.4a11.178,11.178,0,1,1-11.179-11.176A11.178,11.178,0,0,1,100.7,382.4Z" transform="translate(-105.656 7.603)"/></g></g></svg>